SplineFontDB: 3.0
FontName: Hermit-medium
FullName: Hermit Medium
FamilyName: Hermit
Weight: Medium
Copyright: Created by Pablo Caro <me@pcaro.es> - https://pcaro.es/\n\nUnder OFL 1.1 License.
UComments: "2013-9-8: Created."

StartChar: a
Encoding: 97 97 0
Width: 617
Flags: HW
HStem: 0 90<182.974 449> 205 90<187.751 449> 410 90<193.452 404.566>
VStem: 78 90<107.938 186.477> 449 90<90 205 295 369.06>
CounterMasks: 1 e0
LayerCount: 2
Fore
SplineSet
194.096679688 148 m 0
 183.869140625 90 251.869140625 90 323.869140625 90 c 3
 365.869140625 90 394.869140625 90 440.869140625 90 c 2
 464.869140625 90 l 9
 485.147460938 205 l 17
 464.147460938 205 l 18
 428.147460938 205 386.147460938 205 344.147460938 205 c 0
 338.147460938 205 l 0
 281.147460938 205 203.970703125 204 194.096679688 148 c 0
206.359375 365 m 1
 179.583984375 440 l 1
 247.049804688 471 321.163085938 500 396.163085938 500 c 3
 612.163085938 500 598.598632812 338 591.016601562 295 c 0
 570.915039062 181 559.27734375 115 539 0 c 17
 428 0 l 2
 397 0 348 0 308 0 c 3
 168 0 84.34765625 36 104.096679688 148 c 0
 126.313476562 274 220.016601562 295 360.016601562 295 c 3
 390.016601562 295 436.016601562 295 484.016601562 295 c 2
 501.016601562 295 l 1
 517.944335938 391 455.293945312 410 380.293945312 410 c 1
 300.293945312 410 255.23828125 387 206.359375 365 c 1
EndSplineSet
EndChar

StartChar: b
Encoding: 98 98 1
Width: 617
VWidth: 975
Flags: HW
HStem: 0 90<168 381.365> 410 90<168 381.365> 730 20G<78 168>
VStem: 78 90<90 410 500 750> 449 90<165.361 334.639>
LayerCount: 2
Fore
SplineSet
583.08203125 250 m 0
 583.08203125 250 538 0 308 0 c 3
 266 0 212 0 190 0 c 2
 78 0 l 9
 102.685546875 140 122.08203125 250 141.830078125 362 c 0
 149.236328125 404 183.443359375 598 210.245117188 750 c 25
 300.245117188 750 l 17
 296.366210938 728 289.841796875 691 278.204101562 625 c 0
 272.561523438 593 260.04296875 522 259.690429688 520 c 1
 256.163085938 500 l 1
 274.163085938 500 l 2
 305.163085938 500 353.163085938 500 396.163085938 500 c 3
 626.163085938 500 583.08203125 250 583.08203125 250 c 0
205.869140625 90 m 2
 323.869140625 90 l 3
 463.869140625 90 493.08203125 250 493.08203125 250 c 0
 493.08203125 250 520.293945312 410 380.293945312 410 c 0
 338.293945312 410 291.293945312 410 256.293945312 410 c 10
 256.293945312 410 249.293945312 410 240.293945312 410 c 9
 183.869140625 90 l 17
 205.869140625 90 l 2
EndSplineSet
EndChar

StartChar: c
Encoding: 99 99 2
Width: 617
Flags: HW
HStem: 0 90<234.787 420.641> 410 90<234.787 420.641>
VStem: 78 90<160.578 339.422> 449 90<119.087 160 340 380.913>
LayerCount: 2
Fore
SplineSet
567.211914062 160 m 1
 539 0 398 0 308 0 c 0
 168 0 93.869140625 90 122.08203125 250 c 4
 150.293945312 410 256.163085938 500 396.163085938 500 c 4
 486.163085938 500 627.163085938 500 598.951171875 340 c 5
 508.951171875 340 l 5
 521.293945312 410 428.293945312 410 382.293945312 410 c 4
 380.293945312 410 l 4
 290.293945312 410 227.951171875 340 212.08203125 250 c 4
 196.211914062 160 233.869140625 90 323.869140625 90 c 0
 325.869140625 90 l 0
 371.869140625 90 464.869140625 90 477.211914062 160 c 1
 567.211914062 160 l 1
EndSplineSet
EndChar

StartChar: d
Encoding: 100 100 3
Width: 617
VWidth: 975
Flags: HW
HStem: 0 90<234.757 449> 410 90<234.757 449> 730 20G<449 539>
VStem: 78 90<165.361 334.639> 449 90<90 410 500 750>
LayerCount: 2
Fore
SplineSet
122.08203125 250 m 0
 122.08203125 250 166.163085938 500 396.163085938 500 c 3
 439.163085938 500 489.163085938 500 520.163085938 500 c 2
 537.163085938 500 l 1
 540.690429688 520 l 1
 541.04296875 522 553.561523438 593 559.204101562 625 c 0
 570.841796875 691 577.366210938 728 581.245117188 750 c 9
 671.245117188 750 l 25
 644.443359375 598 610.236328125 404 602.830078125 362 c 0
 583.08203125 250 563.685546875 140 539 0 c 17
 427 0 l 2
 405 0 350 0 308 0 c 3
 78 0 122.08203125 250 122.08203125 250 c 0
443.869140625 90 m 2
 464.869140625 90 l 9
 521.293945312 410 l 17
 504.293945312 410 l 18
 469.293945312 410 422.293945312 410 380.293945312 410 c 0
 240.293945312 410 212.08203125 250 212.08203125 250 c 0
 212.08203125 250 183.869140625 90 323.869140625 90 c 0
 443.869140625 90 l 2
EndSplineSet
EndChar

StartChar: e
Encoding: 101 101 4
Width: 617
Flags: HW
HStem: 0 90<197.579 494> 205 90<168 449> 410 90<196.726 419.676>
VStem: 78 90<119.209 205 295 380.791> 449 90<295 380.791>
CounterMasks: 1 e0
LayerCount: 2
Fore
SplineSet
220.016601562 295 m 1
 501.016601562 295 l 1
 521.293945312 410 470.293945312 410 380.293945312 410 c 0
 290.293945312 410 240.293945312 410 220.016601562 295 c 1
396.163085938 500 m 0
 536.163085938 500 627.163085938 500 583.08203125 250 c 2
 575.147460938 205 l 1
 204.147460938 205 l 1
 183.869140625 90 233.869140625 90 323.869140625 90 c 2
 509.869140625 90 l 1
 494 0 l 1
 308 0 l 2
 168 0 78 0 122.08203125 250 c 0
 166.163085938 500 256.163085938 500 396.163085938 500 c 0
EndSplineSet
EndChar

StartChar: f
Encoding: 102 102 5
Width: 617
Flags: HW
HStem: 0 21G<148 238> 250 90<238 378> 660 90<265.271 447.548>
VStem: 148 90<0 250 340 630.322>
LayerCount: 2
Fore
SplineSet
148 0 m 25
 180.091796875 182 212.006835938 363 244.098632812 545 c 0
 244.274414062 546 l 0
 252.208984375 591 281.245117188 750 465.245117188 750 c 0
 540.245117188 750 604.131835938 721 660.666015625 690 c 1
 607.44140625 615 l 1
 566.3203125 637 529.375976562 660 449.375976562 660 c 0
 374.375976562 660 346.793945312 617 334.098632812 545 c 8
 322.108398438 477 309.94140625 408 297.951171875 340 c 25
 437.951171875 340 l 25
 422.08203125 250 l 25
 282.08203125 250 l 25
 238 0 l 25
 148 0 l 25
EndSplineSet
EndChar

StartChar: g
Encoding: 103 103 6
Width: 617
Flags: HW
HStem: -250 90<193.452 404.566> 0 90<202.343 414.302> 410 90<202.343 414.015>
VStem: 78 90<131.578 368.422> 449 90<-119.06 16 129.062 365.906>
LayerCount: 2
Fore
SplineSet
539 0 m 2
 531.065429688 -45 l 2
 523.483398438 -88 479.91796875 -250 263.91796875 -250 c 0
 188.91796875 -250 125.03125 -221 68.498046875 -190 c 1
 121.72265625 -115 l 1
 162.842773438 -137 199.788085938 -160 279.788085938 -160 c 0
 354.788085938 -160 424.137695312 -141 441.065429688 -45 c 9
 449 0 l 18
 451.821289062 16 l 1
 451.821289062 16 448 0 308 0 c 0
 168 0 78 0 122.08203125 250 c 0
 166.163085938 500 256.163085938 500 396.163085938 500 c 0
 536.163085938 500 627.163085938 500 583.08203125 250 c 1
 572.501953125 190 567.211914062 160 539 0 c 2
380.293945312 410 m 0
 290.293945312 410 240.293945312 410 212.08203125 250 c 0
 183.869140625 90 233.869140625 90 323.869140625 90 c 0
 413.869140625 90 464.869140625 90 493.08203125 250 c 0
 521.293945312 410 470.293945312 410 380.293945312 410 c 0
EndSplineSet
EndChar

StartChar: h
Encoding: 104 104 7
Width: 617
VWidth: 975
Flags: HW
HStem: 0 21G<78 168 449 539> 410 90<168 381.365> 730 20G<78 168>
VStem: 78 90<0 410 500 750> 449 90<0 334.639>
LayerCount: 2
Fore
SplineSet
539 0 m 25
 449 0 l 25
 466.280273438 98 476.68359375 157 493.08203125 250 c 0
 493.08203125 250 520.293945312 410 380.293945312 410 c 0
 338.293945312 410 291.293945312 410 256.293945312 410 c 10
 256.293945312 410 249.293945312 410 240.293945312 410 c 9
 168 0 l 17
 78 0 l 9
 102.685546875 140 122.08203125 250 141.830078125 362 c 0
 149.236328125 404 183.443359375 598 210.245117188 750 c 25
 300.245117188 750 l 17
 296.366210938 728 289.841796875 691 278.204101562 625 c 0
 272.561523438 593 260.04296875 522 259.690429688 520 c 1
 256.163085938 500 l 1
 274.163085938 500 l 2
 305.163085938 500 353.163085938 500 396.163085938 500 c 3
 626.163085938 500 583.08203125 250 583.08203125 250 c 0
 567.91796875 164 556.280273438 98 539 0 c 25
EndSplineSet
EndChar

StartChar: i
Encoding: 105 105 8
Width: 617
Flags: HW
HStem: 0 90<78 264 354 539> 410 90<123 264> 570 180<210.426 317.574>
VStem: 174 180<606.426 713.574> 264 90<90 410>
LayerCount: 2
Fore
SplineSet
211.163085938 500 m 0xe8
 442.163085938 500 l 0
 369.869140625 90 l 0
 554.869140625 90 l 0
 539 0 l 0
 78 0 l 0
 93.869140625 90 l 0
 279.869140625 90 l 0
 336.293945312 410 l 0
 195.293945312 410 l 0
 211.163085938 500 l 0xe8
396.245117188 750 m 0
 441.245117188 750 478.310546875 705 470.375976562 660 c 0xf0
 462.44140625 615 409.506835938 570 364.506835938 570 c 0xe8
 319.506835938 570 282.44140625 615 290.375976562 660 c 0xf0
 298.310546875 705 351.245117188 750 396.245117188 750 c 0
EndSplineSet
EndChar

StartChar: j
Encoding: 106 106 9
Width: 617
Flags: HW
HStem: -250 90<184.452 395.566> 410 90<158 440> 570 180<334.809 441.574>
VStem: 299 179<606.426 713.574> 440 90<-119.06 410>
LayerCount: 2
Fore
SplineSet
530 0 m 2xe8
 522.065429688 -45 l 2xe8
 514.483398438 -88 470.91796875 -250 254.91796875 -250 c 0
 179.91796875 -250 116.03125 -221 59.498046875 -190 c 1
 112.72265625 -115 l 1
 153.842773438 -137 190.788085938 -160 270.788085938 -160 c 0xf0
 345.788085938 -160 415.137695312 -141 432.065429688 -45 c 9
 440 0 l 18
 512.293945312 410 l 25
 230.293945312 410 l 25
 246.163085938 500 l 25
 618.163085938 500 l 25
 530 0 l 2xe8
520.245117188 750 m 0
 565.245117188 750 602.310546875 705 594.375976562 660 c 0
 586.44140625 615 533.506835938 570 488.506835938 570 c 0
 443.506835938 570 407.44140625 615 415.375976562 660 c 0xf0
 423.310546875 705 475.245117188 750 520.245117188 750 c 0
EndSplineSet
EndChar

StartChar: k
Encoding: 107 107 10
Width: 617
Flags: HMW
HStem: 0 21G<78 208 415.814 539> 480 20G<386.5 539> 730 20G<78 168>
VStem: 78 90<128 750>
DStem2: 168 128 188 0 0.575655 0.817692<0 116.57 212.587 455.003> 364 250 308 172 0.573462 -0.819232<31.7862 242.656>
LayerCount: 2
Fore
SplineSet
539 0 m 1
 430 0 l 1
 338.328125 172 l 1
 288.1015625 114 238.2265625 58 188 0 c 1
 151 0 115 0 78 0 c 1
 210.245117188 750 l 1
 300.245117188 750 l 1
 190.5703125 128 l 1
 299.434570312 252 409.298828125 376 518.163085938 500 c 1
 627.163085938 500 l 1
 554.528320312 417 480.716796875 333 408.08203125 250 c 1
 539 0 l 1
EndSplineSet
EndChar

StartChar: l
Encoding: 108 108 11
Width: 617
Flags: HW
HStem: 0 90<78 264 354 539> 660 90<174 264>
VStem: 264 90<90 660>
LayerCount: 2
Fore
SplineSet
306.245117188 750 m 0
 486.245117188 750 l 0
 369.869140625 90 l 0
 554.869140625 90 l 0
 539 0 l 0
 78 0 l 0
 93.869140625 90 l 0
 279.869140625 90 l 0
 380.375976562 660 l 0
 290.375976562 660 l 0
 306.245117188 750 l 0
EndSplineSet
EndChar

StartChar: m
Encoding: 109 109 12
Width: 617
Flags: HW
HStem: 0 21G<78 168 264 354 449 539> 410 90<181.223 264 354 434.916>
VStem: 78 90<0 396.777> 264 90<0 410> 449 90<0 396.777>
LayerCount: 2
Fore
SplineSet
168 0 m 1
 78 0 l 1
 125.608398438 270 l 2
 166.163085938 500 166.163085938 500 396.163085938 500 c 0
 626.163085938 500 627.163085938 500 586.608398438 270 c 2
 539 0 l 1
 449 0 l 1
 496.608398438 270 l 2
 498.018554688 278 l 0
 521.293945312 410 520.293945312 410 426.293945312 410 c 1
 354 0 l 1
 264 0 l 1
 336.293945312 410 l 1
 239.94140625 408 240.293945312 410 215.608398438 270 c 2
 168 0 l 1
EndSplineSet
EndChar

StartChar: n
Encoding: 110 110 13
Width: 617
Flags: HW
HStem: 0 21G<78 168 449 539> 410 90<185.046 386.527>
VStem: 78 90<0 390.327> 449 90<0 342.773>
LayerCount: 2
Fore
SplineSet
168 0 m 1
 78 0 l 1
 90.3427734375 70 110.267578125 183 125.608398438 270 c 0
 166.163085938 500 166.163085938 500 396.163085938 500 c 3
 626.163085938 500 586.608398438 270 586.608398438 270 c 0
 539 0 l 1
 449 0 l 1
 496.608398438 270 l 0
 496.608398438 270 520.293945312 410 380.293945312 410 c 3
 240.293945312 410 240.293945312 410 215.608398438 270 c 0
 201.149414062 188 180.342773438 70 168 0 c 1
EndSplineSet
EndChar

StartChar: o
Encoding: 111 111 14
Width: 617
Flags: HW
HStem: 0 90<202.343 414.015> 410 90<202.343 414.015>
VStem: 78 90<131.578 368.422> 449 90<131.578 368.422>
LayerCount: 2
Fore
SplineSet
583.08203125 250 m 0
 539 0 448 0 308 0 c 0
 168 0 78 0 122.08203125 250 c 0
 166.163085938 500 256.163085938 500 396.163085938 500 c 4
 536.163085938 500 627.163085938 500 583.08203125 250 c 0
380.293945312 410 m 0
 290.293945312 410 240.293945312 410 212.08203125 250 c 0
 183.869140625 90 233.869140625 90 323.869140625 90 c 0
 413.869140625 90 464.869140625 90 493.08203125 250 c 0
 521.293945312 410 470.293945312 410 380.293945312 410 c 0
EndSplineSet
EndChar

StartChar: p
Encoding: 112 112 15
Width: 617
VWidth: 975
Flags: HW
HStem: 0 90<168 381.365> 410 90<168 381.365>
VStem: 78 90<-250 0 90 410> 449 90<165.361 334.639>
LayerCount: 2
Fore
SplineSet
583.08203125 250 m 0
 583.08203125 250 538 0 308 0 c 0
 265 0 217 0 186 0 c 2
 168 0 l 1
 164.473632812 -20 l 1
 164.12109375 -22 151.6015625 -93 145.958984375 -125 c 0
 134.321289062 -191 127.797851562 -228 123.91796875 -250 c 9
 33.91796875 -250 l 25
 60.7197265625 -98 94.927734375 96 102.333007812 138 c 0
 122.08203125 250 141.477539062 360 166.163085938 500 c 17
 278.163085938 500 l 2
 300.163085938 500 354.163085938 500 396.163085938 500 c 0
 626.163085938 500 583.08203125 250 583.08203125 250 c 0
262.293945312 410 m 2
 240.293945312 410 l 9
 183.869140625 90 l 17
 199.869140625 90 l 18
 234.869140625 90 281.869140625 90 323.869140625 90 c 0
 463.869140625 90 493.08203125 250 493.08203125 250 c 0
 493.08203125 250 520.293945312 410 380.293945312 410 c 0
 262.293945312 410 l 2
EndSplineSet
EndChar

StartChar: q
Encoding: 113 113 16
Width: 617
VWidth: 975
Flags: HW
HStem: 0 90<234.757 449> 410 90<234.757 449>
VStem: 78 90<165.361 334.639> 449 90<-250 0 90 410>
LayerCount: 2
Fore
SplineSet
122.08203125 250 m 0
 122.08203125 250 166.163085938 500 396.163085938 500 c 0
 438.163085938 500 493.163085938 500 515.163085938 500 c 2
 627.163085938 500 l 9
 602.477539062 360 583.08203125 250 563.333007812 138 c 0
 555.927734375 96 521.719726562 -98 494.91796875 -250 c 25
 404.91796875 -250 l 17
 408.797851562 -228 415.321289062 -191 426.958984375 -125 c 0
 432.6015625 -93 445.12109375 -22 445.473632812 -20 c 1
 449 0 l 1
 432 0 l 2
 401 0 351 0 308 0 c 0
 78 0 122.08203125 250 122.08203125 250 c 0
500.293945312 410 m 2
 380.293945312 410 l 0
 240.293945312 410 212.08203125 250 212.08203125 250 c 0
 212.08203125 250 183.869140625 90 323.869140625 90 c 0
 365.869140625 90 412.869140625 90 447.869140625 90 c 10
 447.869140625 90 455.869140625 90 464.869140625 90 c 9
 521.293945312 410 l 17
 500.293945312 410 l 2
EndSplineSet
EndChar

StartChar: r
Encoding: 114 114 17
Width: 617
Flags: HW
HStem: 0 21G<78 168> 410 90<187.673 420.641>
VStem: 78 90<0 387.801> 449 90<340 380.913>
LayerCount: 2
Fore
SplineSet
212.08203125 250 m 2
 168 0 l 25
 78 0 l 25
 122.08203125 250 l 2
 166.163085938 500 166.163085938 500 396.163085938 500 c 0
 486.163085938 500 627.163085938 500 598.951171875 340 c 1
 508.951171875 340 l 1
 521.293945312 410 428.293945312 410 382.293945312 410 c 0
 380.293945312 410 l 0
 240.293945312 410 240.293945312 410 212.08203125 250 c 2
EndSplineSet
EndChar

StartChar: s
Encoding: 115 115 18
Width: 617
Flags: HW
HStem: 0 90<181.309 435.232> 205 90<181.795 434.544> 410 90<181.309 435.232>
VStem: 78 90<104.555 148 308.721 395.642> 449 90<104.358 191.279 352 395.445>
CounterMasks: 1 e0
LayerCount: 2
Fore
SplineSet
353.147460938 205 m 6
 340.147460938 205 l 6
 235.147460938 205 114.323242188 206 140.067382812 352 c 4
 166.163085938 500 256.163085938 500 396.163085938 500 c 4
 536.163085938 500 627.163085938 500 601.067382812 352 c 5
 511.067382812 352 l 5
 521.293945312 410 470.293945312 410 380.293945312 410 c 4
 290.293945312 410 240.293945312 410 230.067382812 352 c 4
 220.192382812 296 267.016601562 295 351.016601562 295 c 6
 364.016601562 295 l 6
 469.016601562 295 590.83984375 294 565.096679688 148 c 4
 539 0 448 0 308 0 c 4
 168 0 78 0 104.096679688 148 c 5
 194.096679688 148 l 5
 183.869140625 90 233.869140625 90 323.869140625 90 c 4
 413.869140625 90 464.869140625 90 475.096679688 148 c 4
 484.970703125 204 437.147460938 205 353.147460938 205 c 6
EndSplineSet
EndChar

StartChar: t
Encoding: 116 116 19
Width: 617
Flags: HW
HStem: 0 90<236.434 447.548> 410 90<192 474> 730 20G<102 192>
VStem: 102 90<130.94 410 500 750>
LayerCount: 2
Fore
SplineSet
236.08203125 250 m 10
 228.147460938 205 l 17
 211.219726562 109 273.869140625 90 348.869140625 90 c 0
 428.869140625 90 473.924804688 113 522.803710938 135 c 1
 549.580078125 60 l 1
 482.11328125 29 408 0 333 0 c 0
 117 0 130.565429688 162 138.147460938 205 c 2
 146.08203125 250 l 2
 234.245117188 750 l 25
 324.245117188 750 l 25
 280.163085938 500 l 25
 562.163085938 500 l 25
 546.293945312 410 l 25
 264.293945312 410 l 25
 264.293945312 410 245.250976562 302 236.08203125 250 c 10
EndSplineSet
EndChar

StartChar: u
Encoding: 117 117 20
Width: 617
Flags: HW
HStem: 0 90<229.572 431.289> 480 20G<78 168 449 539>
VStem: 78 90<153.446 500> 449 90<109.673 500>
LayerCount: 2
Fore
SplineSet
537.163085938 500 m 1
 627.163085938 500 l 1
 614.8203125 430 594.895507812 317 579.555664062 230 c 0
 539 0 538 0 308 0 c 3
 78 0 118.555664062 230 118.555664062 230 c 0
 166.163085938 500 l 1
 256.163085938 500 l 1
 208.555664062 230 l 0
 208.555664062 230 183.869140625 90 323.869140625 90 c 3
 463.869140625 90 464.869140625 90 489.555664062 230 c 0
 504.013671875 312 524.8203125 430 537.163085938 500 c 1
EndSplineSet
EndChar

StartChar: v
Encoding: 118 118 21
Width: 617
Flags: HMW
HStem: 0 21G<252.72 363.32> 480 20G<78 182.189 434.757 539>
DStem2: 175 500 78 500 0.342045 -0.939684<0 393.175> 308 130 356 0 0.343703 0.939079<0 393.515>
LayerCount: 2
Fore
SplineSet
356 0 m 1
 260 0 l 1
 166.163085938 500 l 1
 263.163085938 500 l 1
 330.922851562 130 l 1
 530.163085938 500 l 1
 627.163085938 500 l 1
 356 0 l 1
EndSplineSet
EndChar

StartChar: w
Encoding: 119 119 22
Width: 617
Flags: HMW
HStem: 0 21G<132.72 232.891 384.941 484.28> 480 20G<78 171.253 445.747 539>
DStem2: 169 500 78 500 0.113266 -0.993565<0 294.852> 202 207 308 238 0.317705 0.94819<0 63.0706> 415 207 308 238 0.315488 -0.948929<-63.1741 0> 415 207 482 0 0.113266 0.993565<0 294.852>
LayerCount: 2
Fore
SplineSet
238.5 207 m 1
 331.885742188 385 l 1
 421.885742188 385 l 1
 451.5 207 l 1
 536.163085938 500 l 5
 627.163085938 500 l 5
 482 0 l 5
 392 0 l 5
 349.965820312 238 l 1
 226 0 l 1
 135 0 l 1
 166.163085938 500 l 1
 257.163085938 500 l 1
 238.5 207 l 1
EndSplineSet
EndChar

StartChar: x
Encoding: 120 120 23
Width: 617
Flags: HMW
HStem: 0 21G<78 201.953 415.814 539> 480 20G<78 201.953 415.814 539>
DStem2: 188 500 78 500 0.575655 -0.817692<0 209.722 337.282 548.155> 78 0 188 0 0.575655 0.817692<63.3221 273.044 400.604 611.477>
LayerCount: 2
Fore
SplineSet
298.08203125 250 m 1
 166.163085938 500 l 1
 276.163085938 500 l 1
 365.834960938 328 l 1
 518.163085938 500 l 1
 627.163085938 500 l 1
 408.08203125 250 l 1
 539 0 l 1
 430 0 l 1
 338.328125 172 l 1
 188 0 l 1
 78 0 l 1
 298.08203125 250 l 1
EndSplineSet
EndChar

StartChar: y
Encoding: 121 121 24
Width: 617
Flags: HMW
HStem: 480 20G<78 182.189 434.757 539>
DStem2: 175 500 78 500 0.342045 -0.939684<0 393.175> 170 -250 264 -250 0.344255 0.938876<32.3599 265.702 404.28 797.795>
LayerCount: 2
Fore
SplineSet
260 0 m 1
 166.163085938 500 l 1
 263.163085938 500 l 1
 330.922851562 130 l 1
 530.163085938 500 l 1
 627.163085938 500 l 1
 356 0 l 1
 219.91796875 -250 l 1
 125.91796875 -250 l 1
 260 0 l 1
EndSplineSet
EndChar

StartChar: z
Encoding: 122 122 25
Width: 617
Flags: HMW
HStem: 0 90<251 539> 410 90<78 366>
DStem2: 78 0 251 90 0.574801 0.818293<173.087 501.043>
LayerCount: 2
Fore
SplineSet
266.869140625 90 m 1
 554.869140625 90 l 1
 539 0 l 1
 78 0 l 1
 197.98046875 136 318.313476562 274 438.293945312 410 c 1
 150.293945312 410 l 1
 166.163085938 500 l 1
 627.163085938 500 l 1
 507.182617188 364 386.849609375 226 266.869140625 90 c 1
EndSplineSet
EndChar

StartChar: braceleft
Encoding: 123 123 26
Width: 617
Flags: HW
HStem: -90 90<370.67 500> 285 90<117 248.509> 660 90<370.67 500>
VStem: 264 90<20.6262 268.386 391.614 639.374>
CounterMasks: 1 e0
LayerCount: 2
Fore
SplineSet
167.252929688 285 m 1
 167.252929688 285 175.541015625 332 183.123046875 375 c 1
 329.123046875 375 330.298828125 376 355.336914062 518 c 0
 396.245117188 750 486.245117188 750 632.245117188 750 c 1
 616.375976562 660 l 1
 470.375976562 660 470.375976562 660 445.336914062 518 c 0
 428.057617188 420 418.006835938 363 394.1875 330 c 5
 406.369140625 297 396.318359375 240 379.038085938 142 c 0
 354 0 354 0 500 0 c 1
 484.130859375 -90 l 1
 338.130859375 -90 248.130859375 -90 289.038085938 142 c 0
 314.077148438 284 313.252929688 285 167.252929688 285 c 1
EndSplineSet
EndChar

StartChar: braceright
Encoding: 125 125 27
Width: 617
Flags: HW
HStem: -90 90<117 246.603> 285 90<369.038 500> 660 90<117 246.603>
VStem: 264 90<20.6262 269.125 390.875 639.374>
CounterMasks: 1 e0
LayerCount: 2
Fore
SplineSet
550.252929688 285 m 1
 404.252929688 285 404.077148438 284 379.038085938 142 c 0
 338.130859375 -90 247.130859375 -90 101.130859375 -90 c 1
 117 0 l 1
 263 0 264 0 289.038085938 142 c 0
 290.801757812 152 292.388671875 161 293.975585938 170 c 0
 308.2578125 251 317.8984375 300 339.1875 330 c 1
 328.477539062 360 336.118164062 409 350.400390625 490 c 0
 351.987304688 499 353.57421875 508 355.336914062 518 c 0
 380.375976562 660 379.375976562 660 233.375976562 660 c 1
 249.245117188 750 l 1
 395.245117188 750 486.245117188 750 445.336914062 518 c 0
 420.298828125 376 420.123046875 375 566.123046875 375 c 1
 550.252929688 285 l 1
EndSplineSet
EndChar

StartChar: bracketleft
Encoding: 91 91 28
Width: 617
Flags: HW
HStem: -90 90<207 500> 660 90<207 500>
VStem: 117 90<0 660>
LayerCount: 2
Fore
SplineSet
249.245117188 750 m 0
 632.245117188 750 l 0
 616.375976562 660 l 0
 323.375976562 660 l 0
 207 0 l 0
 500 0 l 0
 484.130859375 -90 l 0
 101.130859375 -90 l 0
 249.245117188 750 l 0
EndSplineSet
EndChar

StartChar: bracketright
Encoding: 93 93 29
Width: 617
Flags: HW
HStem: -90 90<117 410> 660 90<117 410>
VStem: 410 90<0 660>
LayerCount: 2
Fore
SplineSet
632.245117188 750 m 0
 484.130859375 -90 l 0
 101.130859375 -90 l 0
 117 0 l 0
 410 0 l 0
 526.375976562 660 l 0
 233.375976562 660 l 0
 249.245117188 750 l 0
 632.245117188 750 l 0
EndSplineSet
EndChar

StartChar: quotesingle
Encoding: 39 39 31
Width: 617
Flags: HW
HStem: 730 20G<286.5 330.5>
VStem: 264 90<435.075 739.154>
LayerCount: 2
Fore
SplineSet
472.4921875 672 m 5
 456.622070312 582 425.293945312 410 380.293945312 410 c 7
 337.293945312 410 364.153320312 568 380.375976562 660 c 6
 382.4921875 672 l 6
 383.549804688 678 397.245117188 750 440.245117188 750 c 4
 485.245117188 750 472.4921875 672 472.4921875 672 c 5
EndSplineSet
EndChar

StartChar: parenleft
Encoding: 40 40 32
Width: 617
Flags: HW
HStem: -90 90<387.572 500> 660 90<387.572 500>
VStem: 117 91<206.258 453.742>
LayerCount: 2
Fore
SplineSet
500 0 m 0
 484.130859375 -90 l 0
 101.130859375 -90 175.1875 330 175.1875 330 c 0
 175.1875 330 249.245117188 750 632.245117188 750 c 0
 616.375976562 660 l 0
 324.375976562 660 266.893554688 334 266.1875 330 c 0
 265.482421875 326 208 0 500 0 c 0
EndSplineSet
EndChar

StartChar: parenright
Encoding: 41 41 33
Width: 617
Flags: HW
HStem: -90 90<117 229.428> 660 90<117 229.428>
VStem: 409 91<206.258 453.742>
LayerCount: 2
Fore
SplineSet
117 0 m 0
 409 0 466.482421875 326 467.1875 330 c 0
 467.893554688 334 525.375976562 660 233.375976562 660 c 0
 249.245117188 750 l 0
 632.245117188 750 558.1875 330 558.1875 330 c 0
 558.1875 330 484.130859375 -90 101.130859375 -90 c 0
 117 0 l 0
EndSplineSet
EndChar

StartChar: asterisk
Encoding: 42 42 34
Width: 617
Flags: HW
VStem: 264 90<80 243 417 580>
LayerCount: 2
Fore
SplineSet
155.231445312 438 m 1
 219.926757812 510 l 1
 337.528320312 417 l 1
 366.26953125 580 l 1
 456.26953125 580 l 1
 427.528320312 417 l 1
 577.926757812 510 l 1
 616.231445312 438 l 1
 444.1875 330 l 5
 578.14453125 222 l 1
 514.44921875 150 l 1
 396.84765625 243 l 1
 368.106445312 80 l 1
 278.106445312 80 l 1
 306.84765625 243 l 1
 156.44921875 150 l 1
 117.14453125 222 l 1
 288.1875 330 l 1
 155.231445312 438 l 1
EndSplineSet
EndChar

StartChar: plus
Encoding: 43 43 35
Width: 617
Flags: HW
HStem: 285 90<78 264 354 539>
VStem: 264 90<80 285 375 580>
LayerCount: 2
Fore
SplineSet
605.123046875 375 m 1
 589.252929688 285 l 1
 404.252929688 285 l 1
 368.106445312 80 l 1
 278.106445312 80 l 1
 314.252929688 285 l 1
 128.252929688 285 l 1
 144.123046875 375 l 1
 330.123046875 375 l 1
 366.26953125 580 l 1
 456.26953125 580 l 1
 420.123046875 375 l 1
 605.123046875 375 l 1
EndSplineSet
EndChar

StartChar: hyphen
Encoding: 45 45 36
Width: 617
Flags: HW
HStem: 285 90<78 539>
LayerCount: 2
Fore
SplineSet
144.123046875 375 m 0
 605.123046875 375 l 0
 589.252929688 285 l 0
 128.252929688 285 l 0
 144.123046875 375 l 0
EndSplineSet
EndChar

StartChar: period
Encoding: 46 46 37
Width: 617
Flags: HW
HStem: 0 180<254.809 361.574>
VStem: 219 179<36.4257 143.574>
LayerCount: 2
Fore
SplineSet
339.739257812 180 m 0
 384.739257812 180 421.803710938 135 413.869140625 90 c 0
 405.934570312 45 353 0 308 0 c 0
 263 0 226.934570312 45 234.869140625 90 c 0
 242.803710938 135 294.739257812 180 339.739257812 180 c 0
EndSplineSet
EndChar

StartChar: B
Encoding: 66 66 39
Width: 617
Flags: HW
HStem: 0 90<168 383.961> 386 67<168 368.57> 660 90<168 368.354>
VStem: 78 90<90 386 453 660> 404 90<489.656 621.68> 449 90<157.424 317.235>
LayerCount: 2
Fore
SplineSet
183.869140625 90 m 1xf4
 230.869140625 90 276.869140625 90 323.869140625 90 c 0
 463.869140625 90 490.965820312 238 490.965820312 238 c 1
 490.965820312 238 516.0625 386 376.0625 386 c 2
 236.0625 386 l 1
 183.869140625 90 l 1xf4
146.0625 386 m 1
 157.875976562 453 l 1
 210.245117188 750 l 1
 440.245117188 750 l 2
 626.245117188 750 592.038085938 556 592.038085938 556 c 1xf8
 592.038085938 556 574.934570312 459 506.939453125 425 c 1
 602.711914062 367 580.965820312 238 580.965820312 238 c 2
 580.965820312 238 538 0 308 0 c 2
 78 0 l 1
 146.0625 386 l 1
387.875976562 453 m 0
 483.875976562 453 502.038085938 556 502.038085938 556 c 1
 502.038085938 556 520.375976562 660 424.375976562 660 c 2
 284.375976562 660 l 1
 247.875976562 453 l 1
 294.875976562 453 340.875976562 453 387.875976562 453 c 0
EndSplineSet
EndChar

StartChar: C
Encoding: 67 67 40
Width: 617
Flags: HW
HStem: 0 90<240.447 420.641> 660 90<240.447 420.641>
VStem: 78 90<188.77 561.23> 449 90<119.087 160 590 630.913>
LayerCount: 2
Fore
SplineSet
567.211914062 160 m 5
 539 0 398 0 308 0 c 4
 168 0 93.869140625 90 144.123046875 375 c 4
 194.375976562 660 300.245117188 750 440.245117188 750 c 4
 530.245117188 750 671.245117188 750 643.033203125 590 c 5
 553.033203125 590 l 5
 565.375976562 660 472.375976562 660 426.375976562 660 c 4
 424.375976562 660 l 4
 334.375976562 660 272.033203125 590 234.123046875 375 c 4
 196.211914062 160 233.869140625 90 323.869140625 90 c 4
 325.869140625 90 l 4
 371.869140625 90 464.869140625 90 477.211914062 160 c 5
 567.211914062 160 l 5
EndSplineSet
EndChar

StartChar: D
Encoding: 68 68 41
Width: 617
VWidth: 975
Flags: HW
HStem: 0 90<168 363.971> 660 90<168 363.971>
VStem: 78 90<90 660> 449 90<222.473 527.527>
LayerCount: 2
Fore
SplineSet
300.245117188 750 m 1
 318.245117188 750 l 2
 349.245117188 750 397.245117188 750 440.245117188 750 c 3
 670.245117188 750 605.123046875 375 605.123046875 375 c 0
 605.123046875 375 538 0 308 0 c 3
 266 0 212 0 190 0 c 2
 78 0 l 9
 119.965820312 238 166.163085938 500 185.912109375 612 c 0
 193.317382812 654 200.723632812 696 210.245117188 750 c 25
 300.245117188 750 l 1
205.869140625 90 m 2
 323.869140625 90 l 3
 463.869140625 90 515.123046875 375 515.123046875 375 c 0
 515.123046875 375 564.375976562 660 424.375976562 660 c 0
 382.375976562 660 335.375976562 660 300.375976562 660 c 10
 300.375976562 660 293.375976562 660 284.375976562 660 c 9
 183.869140625 90 l 17
 205.869140625 90 l 2
EndSplineSet
EndChar

StartChar: E
Encoding: 69 69 42
Width: 617
Flags: HW
HStem: 0 90<168 539> 330 90<168 354> 660 90<168 539>
VStem: 78 90<90 330 420 660>
CounterMasks: 1 e0
LayerCount: 2
Fore
SplineSet
210.245117188 750 m 1
 671.245117188 750 l 1
 655.375976562 660 l 1
 284.375976562 660 l 1
 242.057617188 420 l 1
 428.057617188 420 l 1
 412.1875 330 l 1
 226.1875 330 l 1
 183.869140625 90 l 1
 554.869140625 90 l 1
 539 0 l 1
 78 0 l 1
 210.245117188 750 l 1
EndSplineSet
EndChar

StartChar: F
Encoding: 70 70 43
Width: 617
Flags: HW
HStem: 0 21G<78 168> 330 90<168 354> 660 90<168 539>
VStem: 78 90<0 330 420 660>
LayerCount: 2
Fore
SplineSet
210.245117188 750 m 1
 671.245117188 750 l 1
 655.375976562 660 l 1
 284.375976562 660 l 1
 242.057617188 420 l 1
 428.057617188 420 l 1
 412.1875 330 l 1
 226.1875 330 l 1
 168 0 l 1
 78 0 l 1
 210.245117188 750 l 1
EndSplineSet
EndChar

StartChar: L
Encoding: 76 76 44
Width: 617
Flags: HW
HStem: 0 90<168 539> 730 20G<78 168>
VStem: 78 90<90 750>
LayerCount: 2
Fore
SplineSet
210.245117188 750 m 25
 300.245117188 750 l 25
 183.869140625 90 l 25
 554.340820312 87 l 25
 539 0 l 25
 78 0 l 25
 210.245117188 750 l 25
EndSplineSet
EndChar

StartChar: T
Encoding: 84 84 45
Width: 617
Flags: HW
HStem: 0 21G<264 354> 670 80<78 264 354 539>
VStem: 264 90<0 670>
LayerCount: 2
Fore
SplineSet
210.245117188 750 m 0
 671.245117188 750 l 0
 657.138671875 670 l 0
 472.138671875 670 l 0
 354 0 l 0
 264 0 l 0
 382.138671875 670 l 0
 196.138671875 670 l 0
 210.245117188 750 l 0
EndSplineSet
EndChar

StartChar: underscore
Encoding: 95 95 46
Width: 617
Flags: HW
HStem: -90 90<78 539>
LayerCount: 2
Fore
SplineSet
78 0 m 0
 539 0 l 0
 523.130859375 -90 l 0
 62.130859375 -90 l 0
 78 0 l 0
EndSplineSet
EndChar

StartChar: exclam
Encoding: 33 33 48
Width: 617
VWidth: 0
Flags: HW
HStem: -90 180<254.809 361.574> 730 20G<264 354>
VStem: 219 179<-53.5743 53.5743> 264 90<250 750>
LayerCount: 2
Fore
SplineSet
323.869140625 90 m 0xe0
 368.869140625 90 405.934570312 45 398 0 c 0
 390.065429688 -45 337.130859375 -90 292.130859375 -90 c 0
 247.130859375 -90 211.065429688 -45 219 0 c 0
 226.934570312 45 278.869140625 90 323.869140625 90 c 0xe0
396.245117188 750 m 25xd0
 486.245117188 750 l 25
 398.08203125 250 l 25
 308.08203125 250 l 25
 396.245117188 750 l 25xd0
EndSplineSet
EndChar

StartChar: numbersign
Encoding: 35 35 49
Width: 617
VWidth: 0
Flags: HW
HStem: 0 21G<168 258 360 449> 160 90<78 168 258 360 449 539> 500 90<78 168 258 360 449 539> 730 20G<168 258 360 449>
VStem: 168 90<0 160 250 500 590 750> 360 89<0 160 250 500 590 750>
LayerCount: 2
Fore
SplineSet
300.245117188 750 m 1
 390.245117188 750 l 1
 362.033203125 590 l 1
 464.033203125 590 l 1
 492.245117188 750 l 1
 581.245117188 750 l 1
 553.033203125 590 l 1
 643.033203125 590 l 1
 627.163085938 500 l 1
 537.163085938 500 l 1
 493.08203125 250 l 1
 583.08203125 250 l 1
 567.211914062 160 l 1
 477.211914062 160 l 1
 449 0 l 1
 360 0 l 1
 388.211914062 160 l 1
 286.211914062 160 l 1
 258 0 l 1
 168 0 l 1
 196.211914062 160 l 1
 106.211914062 160 l 1
 122.08203125 250 l 1
 212.08203125 250 l 1
 256.163085938 500 l 1
 166.163085938 500 l 1
 182.033203125 590 l 1
 272.033203125 590 l 1
 300.245117188 750 l 1
448.163085938 500 m 1
 346.163085938 500 l 1
 302.08203125 250 l 1
 404.08203125 250 l 1
 448.163085938 500 l 1
EndSplineSet
EndChar

StartChar: dollar
Encoding: 36 36 50
Width: 617
Flags: HW
HStem: 0 21G<264 354> 90 90<182.609 264 354 435.217> 330 90<179.809 264 354 434.623> 570 90<182.609 264 354 422.347> 730 20G<264 354>
VStem: 78 90<196.092 257 432.625 555.831> 264 90<0 90 180 330 420 570 660 750> 449 90<194.169 317.375 493 541.958>
LayerCount: 2
Fore
SplineSet
396.245117188 750 m 1
 486.245117188 750 l 1
 470.375976562 660 l 1
 584.0234375 658 655.375976562 660 625.9296875 493 c 1
 535.9296875 493 l 1
 544.216796875 540 516.153320312 568 454.506835938 570 c 1
 428.057617188 420 l 1
 521.528320312 417 613.057617188 420 584.31640625 257 c 0
 554.869140625 90 484.221679688 92 369.869140625 90 c 1
 354 0 l 1
 264 0 l 1
 279.869140625 90 l 1
 166.221679688 92 93.869140625 90 123.31640625 257 c 1
 213.31640625 257 l 1
 199.739257812 180 234.091796875 182 295.739257812 180 c 1
 322.1875 330 l 1
 228.716796875 333 136.1875 330 164.9296875 493 c 0
 194.375976562 660 266.0234375 658 380.375976562 660 c 1
 396.245117188 750 l 1
364.506835938 570 m 1
 302.153320312 568 268.506835938 570 254.9296875 493 c 0
 242.057617188 420 276.41015625 422 338.057617188 420 c 1
 364.506835938 570 l 1
385.739257812 180 m 1
 448.091796875 182 480.739257812 180 494.31640625 257 c 0
 507.1875 330 473.834960938 328 412.1875 330 c 1
 385.739257812 180 l 1
EndSplineSet
EndChar

StartChar: percent
Encoding: 37 37 51
Width: 617
VWidth: 0
Flags: HW
HStem: 0 80<414.178 516.152> 231 80<414.178 516.152> 440 79<99.0344 200.966> 671 79<99.0344 200.966>
VStem: 0 80<535.923 650.959> 220 80<537.323 650.959> 315 80<97.3228 213.038> 535 82<97.3228 211.32>
LayerCount: 2
Fore
SplineSet
227.583984375 440 m 0
 77.583984375 440 104.915039062 595 104.915039062 595 c 1
 104.915039062 595 132.245117188 750 282.245117188 750 c 0
 432.245117188 750 404.915039062 595 404.915039062 595 c 1
 404.208984375 591 377.583984375 440 227.583984375 440 c 0
185.267578125 597 m 2
 184.385742188 592 l 2
 182.09375 579 175.513671875 519 241.513671875 519 c 3
 307.513671875 519 322.09375 579 324.385742188 592 c 2
 325.267578125 597 l 2
 327.559570312 610 334.315429688 671 268.315429688 671 c 0
 202.315429688 671 187.559570312 610 185.267578125 597 c 2
465 0 m 0
 316 0 341.625 151 342.331054688 155 c 0
 343.036132812 159 370.837890625 311 519.837890625 311 c 0
 670.837890625 311 644.331054688 155 644.331054688 155 c 1
 643.625 151 616 0 465 0 c 0
422.859375 158 m 2
 421.978515625 153 l 2
 419.685546875 140 413.106445312 80 479.106445312 80 c 3
 545.106445312 80 559.685546875 140 561.978515625 153 c 2
 562.859375 158 l 2
 565.15234375 171 571.731445312 231 505.731445312 231 c 0
 439.731445312 231 425.15234375 171 422.859375 158 c 2
96 0 m 1
 0 0 l 1
 653.245117188 750 l 1
 749.245117188 750 l 1
 96 0 l 1
EndSplineSet
EndChar

StartChar: ampersand
Encoding: 38 38 52
Width: 617
VWidth: 975
Flags: HW
HStem: 0 90<206.839 407.383> 500 21G<354 444> 584 90<196.025 328.96>
VStem: 78 90<127.094 326.005 455.19 555.055> 354 90<500 558.523> 449 90<0 36.2512 203.625 312>
LayerCount: 2
Fore
SplineSet
532.163085938 500 m 1
 442.163085938 500 l 1
 456.974609375 584 376.974609375 584 366.974609375 584 c 0
 357.974609375 584 270.974609375 584 256.163085938 500 c 0
 245.936523438 442 394.364257812 331 481.44140625 201 c 1
 488.14453125 222 491.84765625 243 495.197265625 262 c 2
 504.013671875 312 l 1
 594.013671875 312 l 1
 579.731445312 231 554.623046875 168 524.159179688 120 c 1
 539.282226562 81 546.229492188 41 539 0 c 1
 449 0 l 1
 451.116210938 12 451.584960938 26 450.700195312 38 c 1
 416.116210938 12 384 0 354 0 c 0
 126 0 87.1689453125 52 122.08203125 250 c 0
 134.424804688 320 168.477539062 360 201.0625 386 c 1
 174.5859375 423 159.462890625 462 166.163085938 500 c 1
 166.163085938 500 196.844726562 674 382.844726562 674 c 0
 562.844726562 674 532.163085938 500 532.163085938 500 c 1
249.834960938 328 m 1
 229.366210938 314 220.721679688 299 212.08203125 250 c 0
 187.395507812 110 201.869140625 90 369.869140625 90 c 0
 393.869140625 90 413.6328125 100 430.1015625 114 c 1
 391.678710938 191 311.844726562 260 249.834960938 328 c 1
EndSplineSet
EndChar

StartChar: comma
Encoding: 44 44 53
Width: 617
Flags: HW
HStem: -160 340<263 353>
VStem: 219 179<39.5584 143.574>
LayerCount: 2
Fore
SplineSet
300.176757812 1 m 1
 259.234375 7 227.463867188 48 234.869140625 90 c 0
 242.803710938 135 294.739257812 180 339.739257812 180 c 0
 384.739257812 180 421.803710938 135 413.869140625 90 c 0
 395.883789062 -12 325.788085938 -160 190.788085938 -160 c 0
 183.788085938 -160 181.963867188 -159 182.31640625 -157 c 0
 184.080078125 -147 256.427734375 -111 300.176757812 1 c 1
EndSplineSet
EndChar

StartChar: slash
Encoding: 47 47 54
Width: 617
VWidth: 0
Flags: W
HStem: 730 20G<397.167 500>
LayerCount: 2
Fore
SplineSet
213 -90 m 1
 180 -90 150 -90 117 -90 c 1
 404 750 l 1
 500 750 l 1
 213 -90 l 1
EndSplineSet
Validated: 1
EndChar

StartChar: zero
Encoding: 48 48 55
Width: 617
Flags: HW
HStem: 0 90<217.325 399.002> 660 90<217.26 399.289>
VStem: 78 90<250.91 591.108> 449 90<158.892 498.591>
LayerCount: 2
Fore
SplineSet
605.123046875 375 m 0
 539 0 448 0 308 0 c 0
 168 0 78 0 144.123046875 375 c 0
 210.245117188 750 300.245117188 750 440.245117188 750 c 0
 580.245117188 750 671.245117188 750 605.123046875 375 c 0
532.163085938 500 m 1
 224.922851562 130 l 1
 240.575195312 94 267.869140625 90 323.869140625 90 c 0
 413.869140625 90 464.869140625 90 515.123046875 375 c 0
 524.115234375 426 529.16796875 466 532.163085938 500 c 1
524.322265625 620 m 1
 508.670898438 656 482.375976562 660 424.375976562 660 c 0
 334.375976562 660 284.375976562 660 234.123046875 375 c 0
 225.129882812 324 219.900390625 283 216.905273438 249 c 1
 524.322265625 620 l 1
EndSplineSet
EndChar

StartChar: one
Encoding: 49 49 56
Width: 617
VWidth: 0
Flags: HW
HStem: 0 21G<354 444> 730 20G<317.65 444>
VStem: 354 90<0 625>
LayerCount: 2
Fore
SplineSet
257.825195312 396 m 1
 147.825195312 396 l 17
 464.245117188 750 l 1
 501.245117188 750 539.245117188 750 576.245117188 750 c 1
 444 0 l 1
 354 0 l 1
 464.204101562 625 l 1
 257.825195312 396 l 1
EndSplineSet
EndChar

StartChar: two
Encoding: 50 50 57
Width: 617
VWidth: 0
Flags: HW
HStem: 0 90<220 539> 500 21G<78 168> 660 90<216.411 399.728>
VStem: 78 90<500 611.157> 449 90<438.589 612.335>
LayerCount: 2
Fore
SplineSet
235.869140625 90 m 1
 554.869140625 90 l 1
 539 0 l 1
 385 0 126 0 78 0 c 1
 80.8212890625 16 88.580078125 60 93.869140625 90 c 1
 93.869140625 90 515.123046875 375 537.163085938 500 c 0
 549.859375 572 564.375976562 660 424.375976562 660 c 0
 284.375976562 660 268.506835938 570 256.163085938 500 c 1
 166.163085938 500 l 1
 187.322265625 620 210.245117188 750 440.245117188 750 c 0
 670.245117188 750 646.559570312 610 627.163085938 500 c 0
 600.008789062 346 235.869140625 90 235.869140625 90 c 1
EndSplineSet
EndChar

StartChar: three
Encoding: 51 51 58
Width: 617
Flags: HW
HStem: 0 90<218.552 397.698> 354 90<308 383.573> 660 90<231.251 384.953>
VStem: 78 90<141.673 222> 100 90<552 619.025> 427 89<485.039 619.325> 449 90<141.178 302.784>
LayerCount: 2
Fore
SplineSet
578.14453125 222 m 0xe2
 556.985351562 102 448 0 308 0 c 0
 168 0 95.9853515625 102 117.14453125 222 c 1
 207.14453125 222 l 1
 191.275390625 132 233.869140625 90 323.869140625 90 c 0
 413.869140625 90 472.275390625 132 488.14453125 222 c 0xf2
 504.013671875 312 460.419921875 354 370.419921875 354 c 1
 386.2890625 444 l 1
 456.2890625 444 511.989257812 482 524.33203125 552 c 0
 536.67578125 622 494.375976562 660 424.375976562 660 c 0
 354.375976562 660 299.67578125 622 287.33203125 552 c 1
 197.33203125 552 l 1
 218.4921875 672 300.245117188 750 440.245117188 750 c 0
 580.245117188 750 634.4921875 672 613.33203125 552 c 0xec
 598.521484375 468 550.467773438 428 519.177734375 398 c 1
 539.888671875 368 598.951171875 340 578.14453125 222 c 0xe2
EndSplineSet
EndChar

StartChar: four
Encoding: 52 52 59
Width: 617
VWidth: 0
Flags: HW
HStem: 0 21G<449 539> 285 90<200 449> 730 20G<409.333 539>
VStem: 449 90<0 285 375 640>
LayerCount: 2
Fore
SplineSet
671.245117188 750 m 1
 539 0 l 1
 449 0 l 1
 499.252929688 285 l 1
 128.252929688 285 l 1
 144.123046875 375 l 1
 560.245117188 750 l 1
 597.245117188 750 634.245117188 750 671.245117188 750 c 1
515.123046875 375 m 1
 561.849609375 640 l 1
 266.123046875 375 l 1
 515.123046875 375 l 1
EndSplineSet
EndChar

StartChar: five
Encoding: 53 53 60
Width: 617
Flags: HW
HStem: 0 90<78 386.895> 375 90<168 392.401> 660 90<168 474>
VStem: 78 90<465 660> 449 90<150 319.598>
LayerCount: 2
Fore
SplineSet
144.123046875 375 m 1
 210.245117188 750 l 1
 606.245117188 750 l 1
 590.375976562 660 l 1
 284.375976562 660 l 1
 249.9921875 465 l 1
 389.9921875 465 l 2
 529.9921875 465 605.651367188 378 579.908203125 232 c 0
 558.749023438 112 448 0 308 0 c 2
 78 0 l 1
 93.869140625 90 l 1
 323.869140625 90 l 2
 413.869140625 90 474.919921875 147 489.908203125 232 c 0
 504.895507812 317 474.123046875 375 374.123046875 375 c 2
 144.123046875 375 l 1
EndSplineSet
EndChar

StartChar: six
Encoding: 54 54 61
Width: 617
Flags: HW
HStem: 0 90<223.937 392.283> 375 90<224.535 392.283> 660 90<238.896 394.045>
VStem: 78 90<147.52 316.797 415 553.828> 417 90<602 637> 449 90<147.097 317.122>
LayerCount: 2
Fore
SplineSet
323.869140625 90 m 0xf4
 413.869140625 90 474.038085938 142 489.908203125 232 c 0
 505.77734375 322 464.123046875 375 374.123046875 375 c 0
 284.123046875 375 224.77734375 322 208.908203125 232 c 0
 193.038085938 142 233.869140625 90 323.869140625 90 c 0xf4
144.123046875 375 m 2
 194.375976562 660 300.245117188 750 440.245117188 750 c 0
 580.245117188 750 625.138671875 670 613.1484375 602 c 1
 523.1484375 602 l 1xf8
 525.969726562 618 514.375976562 660 424.375976562 660 c 0
 341.375976562 660 280.620117188 599 242.17578125 415 c 1
 270.407226562 439 335.9921875 465 389.9921875 465 c 0
 529.9921875 465 604.946289062 374 579.908203125 232 c 0
 554.869140625 90 448 0 308 0 c 0
 168 0 93.869140625 90 118.908203125 232 c 2
 144.123046875 375 l 2
EndSplineSet
EndChar

StartChar: seven
Encoding: 55 55 62
Width: 617
VWidth: 0
Flags: HW
HStem: 0 21G<78 238> 660 90<78 396>
LayerCount: 2
Fore
SplineSet
210.245117188 750 m 1
 364.245117188 750 517.245117188 750 671.245117188 750 c 1
 507.163085938 500 342.08203125 250 178 0 c 1
 145 0 111 0 78 0 c 1
 512.375976562 660 l 1
 194.375976562 660 l 1
 210.245117188 750 l 1
EndSplineSet
EndChar

StartChar: eight
Encoding: 56 56 63
Width: 617
Flags: HW
HStem: 0 90<218.552 397.698> 354 90<232.679 383.573> 660 90<231.251 384.953>
VStem: 78 90<141.178 303.002> 100 90<485.039 619.325> 427 89<485.039 619.325> 449 90<141.178 302.784>
LayerCount: 2
Fore
SplineSet
424.375976562 660 m 0xec
 354.375976562 660 299.67578125 622 287.33203125 552 c 0
 274.989257812 482 316.2890625 444 386.2890625 444 c 0
 456.2890625 444 511.989257812 482 524.33203125 552 c 0
 536.67578125 622 494.375976562 660 424.375976562 660 c 0xec
578.14453125 222 m 0xe2
 556.985351562 102 448 0 308 0 c 0
 168 0 95.9853515625 102 117.14453125 222 c 0
 138.127929688 341 206.888671875 368 238.177734375 398 c 1xf2
 217.467773438 428 182.521484375 468 197.33203125 552 c 0
 218.4921875 672 300.245117188 750 440.245117188 750 c 0
 580.245117188 750 634.4921875 672 613.33203125 552 c 0xec
 598.521484375 468 550.467773438 428 519.177734375 398 c 1
 539.888671875 368 598.951171875 340 578.14453125 222 c 0xe2
370.419921875 354 m 0
 280.419921875 354 223.013671875 312 207.14453125 222 c 0
 191.275390625 132 233.869140625 90 323.869140625 90 c 0
 413.869140625 90 472.275390625 132 488.14453125 222 c 0
 504.013671875 312 460.419921875 354 370.419921875 354 c 0
EndSplineSet
EndChar

StartChar: nine
Encoding: 57 57 64
Width: 617
Flags: HW
HStem: 0 21G<449 539> 285 90<223.937 392.51> 660 90<223.937 392.283>
VStem: 78 90<432.878 602.903> 449 90<0 336 433.203 602.48>
LayerCount: 2
Fore
SplineSet
424.375976562 660 m 0
 334.375976562 660 275.20703125 608 259.336914062 518 c 0
 243.467773438 428 284.123046875 375 374.123046875 375 c 0
 464.123046875 375 524.467773438 428 540.336914062 518 c 0
 556.20703125 608 514.375976562 660 424.375976562 660 c 0
508.24609375 336 m 1
 480.013671875 312 414.252929688 285 358.252929688 285 c 0
 218.252929688 285 144.298828125 376 169.336914062 518 c 0
 194.375976562 660 300.245117188 750 440.245117188 750 c 0
 580.245117188 750 655.375976562 660 630.336914062 518 c 2
 539 0 l 1
 449 0 l 1
 508.24609375 336 l 1
EndSplineSet
EndChar

StartChar: less
Encoding: 60 60 67
Width: 617
Flags: HW
LayerCount: 2
Fore
SplineSet
167.252929688 285 m 1
 183.123046875 375 l 1
 602.26953125 580 l 1
 584.284179688 478 l 1
 282.1875 330 l 1
 532.091796875 182 l 1
 514.106445312 80 l 1
 167.252929688 285 l 1
EndSplineSet
EndChar

StartChar: greater
Encoding: 62 62 68
Width: 617
Flags: HW
LayerCount: 2
Fore
SplineSet
550.252929688 285 m 1
 131.106445312 80 l 1
 149.091796875 182 l 1
 450.1875 330 l 1
 201.284179688 478 l 1
 219.26953125 580 l 1
 566.123046875 375 l 1
 550.252929688 285 l 1
EndSplineSet
EndChar

StartChar: question
Encoding: 63 63 69
Width: 617
Flags: HW
HStem: -90 180<254.809 361.574> 375 90<354 425.477> 660 90<192.352 424.083>
VStem: 78 90<562 636.074> 219 179<-53.5743 53.5743> 264 90<250 375> 449 90<487.902 636.573>
LayerCount: 2
Fore
SplineSet
273.869140625 90 m 0xfa
 318.869140625 90 355.934570312 45 348 0 c 0
 340.065429688 -45 287.130859375 -90 242.130859375 -90 c 0
 197.130859375 -90 161.065429688 -45 169 0 c 0
 176.934570312 45 228.869140625 90 273.869140625 90 c 0xfa
370.123046875 375 m 1xf6
 348.08203125 250 l 1
 258.08203125 250 l 1
 295.9921875 465 l 1
 339.9921875 465 l 2
 344.9921875 465 l 0
 431.9921875 465 481.16796875 466 498.095703125 562 c 0
 515.375976562 660 464.375976562 660 374.375976562 660 c 0
 284.375976562 660 234.375976562 660 217.095703125 562 c 1
 127.095703125 562 l 1
 160.245117188 750 250.245117188 750 390.245117188 750 c 0
 530.245117188 750 621.245117188 750 588.095703125 562 c 0
 558.649414062 395 484.475585938 377 370.123046875 375 c 1xf6
EndSplineSet
EndChar

StartChar: at
Encoding: 64 64 70
Width: 617
Flags: HW
HStem: 0 90<240.447 420.641> 228 90<322.033 449> 432 90<322.033 449> 660 90<240.447 420.641>
VStem: 78 90<188.77 561.23> 219 89<331.281 417.568> 449 90<119.087 160 318 432 522 630.913>
LayerCount: 2
Fore
SplineSet
374.123046875 375 m 0
 364.248046875 319 409.072265625 318 481.072265625 318 c 2
 505.072265625 318 l 1
 525.172851562 432 l 1
 504.172851562 432 l 2
 498.172851562 432 l 0
 442.172851562 432 383.997070312 431 374.123046875 375 c 0
567.211914062 160 m 1
 539 0 398 0 308 0 c 0
 168 0 93.869140625 90 144.123046875 375 c 0
 194.375976562 660 300.245117188 750 440.245117188 750 c 0
 530.245117188 750 671.245117188 750 643.033203125 590 c 2
 579.202148438 228 l 1
 468.202148438 228 l 2
 328.202148438 228 265.374023438 263 285.123046875 375 c 0
 307.33984375 501 380.04296875 522 520.04296875 522 c 2
 541.04296875 522 l 1
 553.033203125 590 l 2
 565.375976562 660 472.375976562 660 426.375976562 660 c 2
 424.375976562 660 l 2
 334.375976562 660 272.033203125 590 234.123046875 375 c 0
 196.211914062 160 233.869140625 90 323.869140625 90 c 2
 325.869140625 90 l 2
 371.869140625 90 464.869140625 90 477.211914062 160 c 1
 567.211914062 160 l 1
EndSplineSet
EndChar

StartChar: A
Encoding: 65 65 71
Width: 617
Flags: HMW
HStem: 0 21G<78 175.78 441.122 539> 205 90<243 374> 730 20G<255.147 360.88>
DStem2: 78 0 171 0 0.239488 0.970899<22.2724 233.042 325.931 602.67> 356 750 308 564 0.240708 -0.970598<168.977 445.955 538.604 749.612>
LayerCount: 2
Fore
SplineSet
488.245117188 750 m 1
 539 0 l 1
 446 0 l 1
 432.147460938 205 l 1
 256.147460938 205 l 1
 171 0 l 1
 78 0 l 1
 392.245117188 750 l 1
 488.245117188 750 l 1
426.016601562 295 m 1
 407.448242188 564 l 1
 295.016601562 295 l 1
 426.016601562 295 l 1
EndSplineSet
EndChar

StartChar: G
Encoding: 71 71 72
Width: 617
Flags: HW
HStem: 0 90<240.447 420.641> 285 90<308 449> 660 90<240.447 420.641>
VStem: 78 90<188.77 561.23> 449 90<119.087 285 590 630.913>
LayerCount: 2
Fore
SplineSet
515.123046875 375 m 5
 515.123046875 375 605.123046875 375 589.252929688 285 c 5
 567.211914062 160 l 6
 539 0 398 0 308 0 c 4
 168 0 93.869140625 90 144.123046875 375 c 4
 194.375976562 660 300.245117188 750 440.245117188 750 c 4
 530.245117188 750 671.245117188 750 643.033203125 590 c 5
 553.033203125 590 l 5
 565.375976562 660 472.375976562 660 426.375976562 660 c 4
 424.375976562 660 l 4
 334.375976562 660 272.033203125 590 234.123046875 375 c 4
 196.211914062 160 233.869140625 90 323.869140625 90 c 4
 325.869140625 90 l 4
 371.869140625 90 464.869140625 90 477.211914062 160 c 6
 499.252929688 285 l 5
 358.252929688 285 l 5
 374.123046875 375 l 5
 515.123046875 375 l 5
EndSplineSet
EndChar

StartChar: H
Encoding: 72 72 73
Width: 617
Flags: HW
HStem: 0 21G<78 168 449 539> 330 90<168 449> 730 20G<78 168 449 539>
VStem: 78 90<0 330 420 750> 449 90<0 330 420 750>
LayerCount: 2
Fore
SplineSet
210.245117188 750 m 1
 300.245117188 750 l 1
 280.849609375 640 261.453125 530 242.057617188 420 c 1
 523.057617188 420 l 1
 542.453125 530 561.849609375 640 581.245117188 750 c 1
 671.245117188 750 l 1
 539 0 l 1
 449 0 l 1
 507.1875 330 l 1
 226.1875 330 l 1
 168 0 l 1
 78 0 l 1
 210.245117188 750 l 1
EndSplineSet
EndChar

StartChar: I
Encoding: 73 73 74
Width: 617
Flags: HW
HStem: 0 90<98 264 354 520> 660 90<98 264 354 520>
VStem: 264 90<90 660>
LayerCount: 2
Fore
SplineSet
652.245117188 750 m 1
 636.375976562 660 l 1
 470.375976562 660 l 1
 369.869140625 90 l 1
 535.869140625 90 l 1
 520 0 l 1
 98 0 l 1
 113.869140625 90 l 1
 279.869140625 90 l 1
 380.375976562 660 l 1
 214.375976562 660 l 1
 230.245117188 750 l 1
 652.245117188 750 l 1
EndSplineSet
EndChar

StartChar: J
Encoding: 74 74 75
Width: 617
Flags: HW
HStem: 0 90<202.343 414.015> 660 90<308 449>
VStem: 78 90<134.094 250> 449 90<134.094 660>
LayerCount: 2
Fore
SplineSet
565.375976562 660 m 1
 424.375976562 660 l 1
 440.245117188 750 l 1
 517.245117188 750 594.245117188 750 671.245117188 750 c 1
 641.798828125 583 612.528320312 417 583.08203125 250 c 0
 539 0 448 0 308 0 c 0
 168 0 78 0 122.08203125 250 c 1
 212.08203125 250 l 1
 183.869140625 90 233.869140625 90 323.869140625 90 c 0
 413.869140625 90 464.869140625 90 493.08203125 250 c 2
 565.375976562 660 l 1
EndSplineSet
EndChar

StartChar: K
Encoding: 75 75 76
Width: 617
VWidth: 0
Flags: HMW
HStem: 0 21G<78 187.559 430.294 539> 730 20G<78 168 394.5 539>
VStem: 78 90<186 750>
DStem2: 168 186 308 272 0.434682 0.900584<0 138.306 252.8 626.163> 358 375 308 272 0.434682 -0.900584<71.0261 373.363>
LayerCount: 2
Fore
SplineSet
210.245117188 750 m 1
 300.245117188 750 l 1
 200.796875 186 l 1
 324.946289062 374 448.095703125 562 572.245117188 750 c 1
 671.245117188 750 l 1
 424.123046875 375 l 1
 539 0 l 1
 506 0 473 0 440 0 c 1
 355.9609375 272 l 1
 178 0 l 1
 145 0 111 0 78 0 c 1
 210.245117188 750 l 1
EndSplineSet
EndChar

StartChar: M
Encoding: 77 77 77
Width: 617
VWidth: 0
Flags: HMW
HStem: 0 21G<78 168 449 539> 730 20G<78 187.489 430.365 539>
VStem: 78 90<0 568> 449 90<0 568>
DStem2: 308 476 168 568 0.436627 -0.899643<-143.895 0> 308 476 360 375 0.430774 0.90246<0 143.765>
LayerCount: 2
Fore
SplineSet
549.153320312 568 m 1
 426.123046875 375 l 1
 325.123046875 375 l 1
 268.153320312 568 l 1
 168 0 l 1
 78 0 l 1
 210.245117188 750 l 1
 243.245117188 750 277.245117188 750 310.245117188 750 c 1
 391.931640625 476 l 1
 572.245117188 750 l 1
 605.245117188 750 638.245117188 750 671.245117188 750 c 1
 539 0 l 1
 449 0 l 1
 549.153320312 568 l 1
EndSplineSet
EndChar

StartChar: N
Encoding: 78 78 78
Width: 617
VWidth: 0
Flags: HMW
HStem: 0 21G<78 168 394.5 539> 730 20G<78 223 449 539>
VStem: 78 90<0 564> 449 90<186 750>
DStem2: 178 750 168 564 0.434682 -0.900584<163.162 625.728>
LayerCount: 2
Fore
SplineSet
581.245117188 750 m 1
 671.245117188 750 l 1
 539 0 l 1
 506 0 473 0 440 0 c 1
 382.149414062 188 324.298828125 376 267.448242188 564 c 1
 168 0 l 1
 78 0 l 1
 210.245117188 750 l 1
 243.245117188 750 277.245117188 750 310.245117188 750 c 1
 367.095703125 562 423.946289062 374 481.796875 186 c 1
 581.245117188 750 l 1
EndSplineSet
EndChar

StartChar: O
Encoding: 79 79 79
Width: 617
Flags: HW
HStem: 0 90<217.26 399.002> 660 90<217.26 399.002>
VStem: 78 90<158.892 591.108> 449 90<158.892 591.108>
LayerCount: 2
Fore
SplineSet
605.123046875 375 m 0
 539 0 448 0 308 0 c 0
 168 0 78 0 144.123046875 375 c 0
 210.245117188 750 300.245117188 750 440.245117188 750 c 0
 580.245117188 750 671.245117188 750 605.123046875 375 c 0
424.375976562 660 m 0
 334.375976562 660 284.375976562 660 234.123046875 375 c 0
 183.869140625 90 233.869140625 90 323.869140625 90 c 0
 413.869140625 90 464.869140625 90 515.123046875 375 c 0
 565.375976562 660 514.375976562 660 424.375976562 660 c 0
EndSplineSet
EndChar

StartChar: P
Encoding: 80 80 80
Width: 617
Flags: HW
HStem: 0 21G<78 168> 330 90<168 392.08> 660 90<168 392.08>
VStem: 78 90<0 330 420 660> 449 90<478.129 601.871>
LayerCount: 2
Fore
SplineSet
242.057617188 420 m 1
 382.057617188 420 l 2
 522.057617188 420 544.216796875 540 544.216796875 540 c 1
 544.216796875 540 564.375976562 660 424.375976562 660 c 2
 284.375976562 660 l 1
 242.057617188 420 l 1
210.245117188 750 m 1
 287.245117188 750 363.245117188 750 440.245117188 750 c 0
 670.245117188 750 634.216796875 540 634.216796875 540 c 1
 634.216796875 540 596.1875 330 366.1875 330 c 2
 226.1875 330 l 1
 168 0 l 1
 78 0 l 1
 210.245117188 750 l 1
EndSplineSet
EndChar

StartChar: Q
Encoding: 81 81 81
Width: 617
Flags: HMW
HStem: 0 90<217.26 376.187> 660 90<217.26 399.002>
VStem: 78 90<158.892 591.108> 449 90<226.652 591.108>
DStem2: 402 285 302 285 0.435809 -0.900039<0 73.3485 216.275 273.072>
LayerCount: 2
Fore
SplineSet
424.375976562 660 m 0
 334.375976562 660 284.375976562 660 234.123046875 375 c 0
 183.869140625 90 233.869140625 90 323.869140625 90 c 0
 351.869140625 90 380.280273438 98 403.806640625 118 c 1
 377.970703125 204 378.088867188 199 352.252929688 285 c 1
 452.252929688 285 l 1
 472.615234375 219 l 1
 490.021484375 261 504.190429688 313 515.123046875 375 c 0
 565.375976562 660 514.375976562 660 424.375976562 660 c 0
423.993164062 51 m 1
 383.173828125 18 341 0 308 0 c 0
 168 0 78 0 144.123046875 375 c 0
 210.245117188 750 300.245117188 750 440.245117188 750 c 0
 580.245117188 750 671.245117188 750 605.123046875 375 c 0
 587.842773438 277 547.20703125 194 498.922851562 130 c 1
 539 0 l 1
 506 0 473 0 440 0 c 1
 423.993164062 51 l 1
EndSplineSet
EndChar

StartChar: R
Encoding: 82 82 82
Width: 617
Flags: HMW
HStem: 0 21G<78 168 430.303 539> 330 90<168 280> 660 90<168 392.08>
VStem: 78 90<0 330 420 660> 449 90<474.382 601.871>
DStem2: 377 337 280 330 0.433253 -0.901273<0 331.024>
LayerCount: 2
Fore
SplineSet
210.245117188 750 m 1
 287.245117188 750 363.245117188 750 440.245117188 750 c 0
 670.245117188 750 634.216796875 540 634.216796875 540 c 1
 609.177734375 398 466.421875 337 436.421875 337 c 1
 539 0 l 1
 506 0 473 0 440 0 c 1
 338.1875 330 l 1
 226.1875 330 l 1
 168 0 l 1
 78 0 l 1
 210.245117188 750 l 1
242.057617188 420 m 1
 382.057617188 420 l 2
 522.057617188 420 544.216796875 540 544.216796875 540 c 1
 544.216796875 540 564.375976562 660 424.375976562 660 c 2
 284.375976562 660 l 1
 242.057617188 420 l 1
EndSplineSet
EndChar

StartChar: S
Encoding: 83 83 83
Width: 617
Flags: HW
HStem: 0 90<192.619 413.563> 352 90<187.751 430.604> 660 90<192.619 428.502>
VStem: 78 90<114.241 180 462.316 636.573> 449 90<124.554 331.3 570 640.827>
LayerCount: 2
Fore
SplineSet
177.095703125 562 m 4
 210.245117188 750 300.245117188 750 440.245117188 750 c 4
 580.245117188 750 665.25 716 639.506835938 570 c 5
 549.506835938 570 l 5
 564.317382812 654 528.375976562 660 460.375976562 660 c 6
 424.375976562 660 l 6
 334.375976562 660 284.375976562 660 267.095703125 562 c 4
 245.936523438 442 264.936523438 442 385.936523438 442 c 4
 389.936523438 442 l 0
 527.936523438 442 616.759765625 441 579.908203125 232 c 4
 539 0 448 0 308 0 c 4
 168 0 78 0 109.739257812 180 c 5
 199.739257812 180 l 5
 184.045898438 91 233.869140625 90 321.869140625 90 c 6
 323.869140625 90 l 6
 413.869140625 90 464.869140625 90 489.908203125 232 c 4
 510.890625 351 492.067382812 352 376.067382812 352 c 0
 370.067382812 352 l 7
 230.067382812 352 140.067382812 352 177.095703125 562 c 4
EndSplineSet
EndChar

StartChar: U
Encoding: 85 85 84
Width: 617
Flags: HW
HStem: 0 90<229.572 431.289> 730 20G<78 168 449 539>
VStem: 78 90<153.446 750> 449 90<109.673 750>
LayerCount: 2
Fore
SplineSet
581.245117188 750 m 1
 671.245117188 750 l 1
 658.90234375 680 594.895507812 317 579.555664062 230 c 0
 539 0 538 0 308 0 c 3
 78 0 118.555664062 230 118.555664062 230 c 0
 210.245117188 750 l 1
 300.245117188 750 l 1
 208.555664062 230 l 0
 208.555664062 230 183.869140625 90 323.869140625 90 c 3
 463.869140625 90 464.869140625 90 489.555664062 230 c 0
 504.013671875 312 568.90234375 680 581.245117188 750 c 1
EndSplineSet
EndChar

StartChar: V
Encoding: 86 86 85
Width: 617
Flags: HMW
HStem: 0 21G<255.147 360.88> 730 20G<78 175.858 441.106 539>
DStem2: 171 750 78 750 0.239488 -0.970899<0 580.397> 308 186 356 0 0.240708 0.970598<0 580.635>
LayerCount: 2
Fore
SplineSet
356 0 m 1
 260 0 l 1
 210.245117188 750 l 1
 303.245117188 750 l 1
 340.796875 186 l 1
 578.245117188 750 l 1
 671.245117188 750 l 1
 356 0 l 1
EndSplineSet
EndChar

StartChar: W
Encoding: 87 87 86
Width: 617
Flags: HMW
HStem: 0 21G<133.48 231.077 386.799 483.52> 480 20G<256.956 359.088> 730 20G<78 170.513 446.494 539>
DStem2: 169 750 78 750 0.0757815 -0.997124<0 477.359> 205 274 308 323 0.248002 0.968759<0 73.0135> 412 272 308 323 0.251634 -0.967823<-75.5289 0> 412 272 482 0 0.0757815 0.997124<0 479.354>
LayerCount: 2
Fore
SplineSet
253.313476562 274 m 1
 350.163085938 500 l 1
 442.163085938 500 l 1
 459.9609375 272 l 1
 580.245117188 750 l 1
 671.245117188 750 l 1
 482 0 l 1
 392 0 l 1
 364.954101562 323 l 1
 226 0 l 1
 135 0 l 1
 210.245117188 750 l 1
 301.245117188 750 l 1
 253.313476562 274 l 1
EndSplineSet
EndChar

StartChar: X
Encoding: 88 88 87
Width: 617
VWidth: 0
Flags: HMW
HStem: 0 21G<78 187.559 430.294 539> 730 20G<78 187.559 430.294 539>
DStem2: 178 750 78 750 0.434682 -0.900584<0 301.468 486.988 789.325> 78 0 178 0 0.434682 0.900584<43.4682 344.936 530.456 832.793>
LayerCount: 2
Fore
SplineSet
572.245117188 750 m 1
 671.245117188 750 l 1
 424.123046875 375 l 1
 539 0 l 1
 506 0 473 0 440 0 c 1
 355.9609375 272 l 1
 178 0 l 1
 145 0 111 0 78 0 c 1
 325.123046875 375 l 1
 210.245117188 750 l 1
 310.245117188 750 l 1
 392.284179688 478 l 1
 572.245117188 750 l 1
EndSplineSet
EndChar

StartChar: Y
Encoding: 89 89 88
Width: 617
Flags: HMW
HStem: 0 21G<264 354> 730 20G<78 187.848 428.152 539>
VStem: 264 90<0 375>
DStem2: 178 750 78 750 0.444345 -0.895856<0 294.271> 308 486 354 375 0.442424 0.896806<0 294.272>
LayerCount: 2
Fore
SplineSet
330.123046875 375 m 1
 210.245117188 750 l 1
 310.245117188 750 l 1
 393.6953125 486 l 1
 570.245117188 750 l 1
 671.245117188 750 l 1
 420.123046875 375 l 1
 354 0 l 1
 264 0 l 1
 330.123046875 375 l 1
EndSplineSet
EndChar

StartChar: Z
Encoding: 90 90 89
Width: 617
VWidth: 0
Flags: HMW
HStem: 0 90<220 539> 660 90<78 396>
DStem2: 78 0 220 90 0.435169 0.900349<142.825 732.614>
LayerCount: 2
Fore
SplineSet
539 0 m 1
 385 0 232 0 78 0 c 1
 222.791992188 220 367.583984375 440 512.375976562 660 c 1
 194.375976562 660 l 1
 210.245117188 750 l 1
 364.245117188 750 517.245117188 750 671.245117188 750 c 1
 526.453125 530 380.661132812 310 235.869140625 90 c 1
 554.869140625 90 l 1
 539 0 l 1
EndSplineSet
EndChar

StartChar: backslash
Encoding: 92 92 90
Width: 617
VWidth: 0
Flags: MW
HStem: 0 21G<396.347 500> 730 20G<117 220.653>
DStem2: 213 750 117 750 0.357393 -0.933954<0 768.728>
LayerCount: 2
Fore
SplineSet
404 0 m 1
 117 750 l 1
 213 750 l 1
 500 0 l 1
 467 0 437 0 404 0 c 1
EndSplineSet
Validated: 1
EndChar

StartChar: asciicircum
Encoding: 94 94 91
Width: 617
Flags: HMW
HStem: 730 20G<256.16 361.787>
DStem2: 117 375 214 375 0.364961 0.931023<35.4012 295.015> 354 750 308 617 0.362806 -0.931865<107.249 367.59>
LayerCount: 2
Fore
SplineSet
486.245117188 750 m 1
 566.123046875 375 l 1
 470.123046875 375 l 1
 416.793945312 617 l 1
 280.123046875 375 l 1
 183.123046875 375 l 1
 396.245117188 750 l 1
 486.245117188 750 l 1
EndSplineSet
EndChar

StartChar: grave
Encoding: 96 96 92
Width: 617
Flags: HW
HStem: 545 205
VStem: 135 218
LayerCount: 2
Fore
SplineSet
261.07421875 715 m 0
 264.248046875 733 282.245117188 750 300.245117188 750 c 2
 301.245117188 750 l 2
 331.245117188 750 357.779296875 719 357.779296875 719 c 1
 406.2578125 665 458.735351562 611 452.80078125 566 c 0
 450.685546875 554 443.098632812 545 431.098632812 545 c 2
 429.098632812 545 l 2
 385.098632812 545 332.795898438 600 284.317382812 654 c 1
 284.317382812 654 256.784179688 685 261.07421875 715 c 0
EndSplineSet
EndChar

StartChar: bar
Encoding: 124 124 93
Width: 617
VWidth: 0
Flags: HW
HStem: 730 20G<264 354>
VStem: 264 90<-90 750>
LayerCount: 2
Fore
SplineSet
396.245117188 750 m 25
 486.245117188 750 l 25
 338.130859375 -90 l 25
 248.130859375 -90 l 25
 396.245117188 750 l 25
EndSplineSet
EndChar

StartChar: asciitilde
Encoding: 126 126 94
Width: 617
Flags: HW
HStem: 240 90<366.029 442.54> 330 90<175.269 251.808>
VStem: 78 90<283 323.364> 449 90<337.823 375>
LayerCount: 2
Fore
SplineSet
127.900390625 283 m 5x70
 127.900390625 283 152.057617188 420 290.057617188 420 c 7x70
 428.057617188 420 412.1875 330 460.1875 330 c 7
 507.1875 330 514.76953125 373 515.123046875 375 c 5
 605.123046875 375 l 5
 603.888671875 368 580.318359375 240 444.318359375 240 c 7xb0
 306.318359375 240 322.1875 330 273.1875 330 c 7
 226.1875 330 217.900390625 283 217.900390625 283 c 5
 127.900390625 283 l 5x70
EndSplineSet
EndChar

StartChar: exclamdown
Encoding: 161 161 96
Width: 617
Flags: HW
HStem: 410 180<254.809 361.574>
VStem: 219 179<446.426 553.574> 264 90<-250 250>
LayerCount: 2
Fore
SplineSet
412.033203125 590 m 0xc0
 457.033203125 590 494.098632812 545 486.163085938 500 c 0
 478.228515625 455 425.293945312 410 380.293945312 410 c 0
 335.293945312 410 299.228515625 455 307.163085938 500 c 0
 315.098632812 545 367.033203125 590 412.033203125 590 c 0xc0
308.08203125 250 m 25xa0
 398.08203125 250 l 25
 309.91796875 -250 l 25
 219.91796875 -250 l 25
 308.08203125 250 l 25xa0
EndSplineSet
EndChar

StartChar: cent
Encoding: 162 162 97
Width: 617
Flags: HW
HStem: 0 21G<264 354> 125 90<233.07 264 354 422.754> 533 90<233.07 264 354 422.754> 730 20G<264 354>
VStem: 78 90<282.821 465.179> 264 90<0 125 220 528 623 750> 449 90<238.531 284 464 509.469>
LayerCount: 2
Fore
SplineSet
396.245117188 750 m 1
 486.245117188 750 l 1
 463.8515625 623 l 1
 548.322265625 620 644.620117188 599 620.815429688 464 c 1
 530.815429688 464 l 1
 539.80859375 515 492.27734375 529 447.982421875 533 c 1
 391.91015625 215 l 1
 437.615234375 219 490.083984375 233 499.077148438 284 c 1
 589.077148438 284 l 1
 565.272460938 149 461.5703125 128 376.041015625 125 c 1
 354 0 l 1
 264 0 l 1
 286.393554688 127 l 1
 175.567382812 145 118.908203125 232 143.946289062 374 c 0
 168.984375 516 256.325195312 603 373.499023438 621 c 1
 396.245117188 750 l 1
357.100585938 528 m 1
 291.57421875 508 246.818359375 447 233.946289062 374 c 0
 221.07421875 301 244.318359375 240 302.791992188 220 c 1
 357.100585938 528 l 1
EndSplineSet
EndChar

StartChar: sterling
Encoding: 163 163 98
Width: 617
Flags: HW
HStem: 0 90<192 539> 285 90<192 402> 660 90<236.434 447.548>
VStem: 102 90<90 285 375 619.06>
LayerCount: 2
Fore
SplineSet
117.869140625 90 m 1
 144.670898438 242 171.296875 393 198.098632812 545 c 0
 205.680664062 588 249.245117188 750 465.245117188 750 c 0
 540.245117188 750 604.131835938 721 660.666015625 690 c 1
 607.44140625 615 l 1
 566.3203125 637 529.375976562 660 449.375976562 660 c 0
 374.375976562 660 305.025390625 641 288.098632812 545 c 0
 278.223632812 489 267.997070312 431 258.123046875 375 c 1
 468.123046875 375 l 1
 452.252929688 285 l 1
 242.252929688 285 l 1
 207.869140625 90 l 1
 554.869140625 90 l 1
 539 0 l 1
 78 0 l 1
 117.869140625 90 l 1
EndSplineSet
EndChar

StartChar: Euro
Encoding: 8364 8364 99
Width: 617
Flags: HW
HStem: 0 90<240.447 420.641> 250 90<176 402> 410 90<176 402> 660 90<240.447 420.641>
VStem: 78 90<340 410> 449 90<119.087 160 590 630.913>
LayerCount: 2
Fore
SplineSet
567.211914062 160 m 5
 539 0 398 0 308 0 c 4
 168 0 93.869140625 90 144.123046875 375 c 4
 194.375976562 660 300.245117188 750 440.245117188 750 c 4
 530.245117188 750 671.245117188 750 643.033203125 590 c 5
 553.033203125 590 l 5
 565.375976562 660 472.375976562 660 426.375976562 660 c 6
 424.375976562 660 l 6
 354.375976562 660 302.969726562 618 264.163085938 500 c 5
 490.163085938 500 l 5
 474.293945312 410 l 5
 240.293945312 410 l 5
 227.951171875 340 l 5
 461.951171875 340 l 5
 446.08203125 250 l 5
 220.08203125 250 l 5
 217.275390625 132 253.869140625 90 323.869140625 90 c 6
 325.869140625 90 l 6
 371.869140625 90 464.869140625 90 477.211914062 160 c 5
 567.211914062 160 l 5
EndSplineSet
EndChar

StartChar: yen
Encoding: 165 165 100
Width: 617
Flags: HMW
HStem: 0 21G<264 354> 160 90<117 264 354 500> 285 90<117 264 354 500> 730 20G<78 187.848 428.152 539>
VStem: 264 90<0 160 250 285>
DStem2: 178 750 78 750 0.444345 -0.895856<0 294.271> 308 486 354 375 0.442424 0.896806<0 294.272>
LayerCount: 2
Fore
SplineSet
404.252929688 285 m 1
 398.08203125 250 l 1
 544.08203125 250 l 1
 528.211914062 160 l 1
 382.211914062 160 l 1
 354 0 l 1
 264 0 l 1
 292.211914062 160 l 1
 145.211914062 160 l 1
 161.08203125 250 l 1
 308.08203125 250 l 1
 314.252929688 285 l 1
 167.252929688 285 l 1
 183.123046875 375 l 1
 330.123046875 375 l 1
 210.245117188 750 l 1
 310.245117188 750 l 1
 393.6953125 486 l 1
 570.245117188 750 l 1
 671.245117188 750 l 1
 420.123046875 375 l 1
 566.123046875 375 l 1
 550.252929688 285 l 1
 404.252929688 285 l 1
EndSplineSet
EndChar

StartChar: section
Encoding: 167 167 102
Width: 617
Flags: HW
HStem: -250 90<187.751 423.613> 58 88<182.974 423.588> 352 90<192.625 433.299> 660 90<192.619 428.502>
VStem: 78 90<-140.827 -70 161.289 327.622 460.558 636.573> 449 90<-136.573 39.3732 170.752 334.833 570 640.827>
LayerCount: 2
Fore
SplineSet
370.067382812 352 m 0
 280.067382812 352 230.067382812 352 212.08203125 250 c 0
 193.744140625 146 212.744140625 146 333.744140625 146 c 2
 337.744140625 146 l 2
 425.744140625 146 475.096679688 148 493.08203125 250 c 0
 511.067382812 352 491.067382812 352 370.067382812 352 c 0
504.27734375 115 m 1
 534.340820312 87 545.34765625 36 528.067382812 -62 c 0
 494.91796875 -250 403.91796875 -250 263.91796875 -250 c 0
 123.91796875 -250 39.9130859375 -216 65.6572265625 -70 c 1
 155.657226562 -70 l 1
 140.845703125 -154 177.788085938 -160 245.788085938 -160 c 2
 279.788085938 -160 l 2
 369.788085938 -160 420.788085938 -160 438.067382812 -62 c 0
 459.2265625 58 439.2265625 58 318.2265625 58 c 0
 178.2265625 58 88.2265625 58 122.08203125 250 c 0
 135.306640625 325 156.59375 372 187.53125 400 c 1
 166.8203125 430 162.4609375 479 177.095703125 562 c 0
 210.245117188 750 300.245117188 750 440.245117188 750 c 0
 580.245117188 750 665.25 716 639.506835938 570 c 1
 549.506835938 570 l 1
 564.317382812 654 528.375976562 660 460.375976562 660 c 2
 424.375976562 660 l 2
 334.375976562 660 284.375976562 660 267.095703125 562 c 0
 245.936523438 442 264.936523438 442 385.936523438 442 c 0
 525.936523438 442 616.936523438 442 583.08203125 250 c 0
 571.796875 186 541.21484375 143 504.27734375 115 c 1
EndSplineSet
EndChar

StartChar: copyright
Encoding: 169 169 104
Width: 617
Flags: HW
HStem: 0 84<205.242 410.872> 142 59<245.735 382.92> 416 60<245.735 382.92> 534 83<205.242 410.872>
VStem: 0 84<211.704 405.156> 142 73<228.699 387.767> 392 73<210.698 249 369 404.031> 534 83<217.256 405.156>
LayerCount: 2
Fore
SplineSet
671.30859375 308 m 0
 671.30859375 308 616 0 308 0 c 0
 0 0 54.30859375 308 54.30859375 308 c 0
 54.30859375 308 108.793945312 617 416.793945312 617 c 0
 724.793945312 617 671.30859375 308 671.30859375 308 c 0
402.158203125 534 m 0
 178.158203125 534 138.30859375 308 138.30859375 308 c 0
 138.30859375 308 98.8115234375 84 322.811523438 84 c 0
 546.811523438 84 588.30859375 308 588.30859375 308 c 0
 588.30859375 308 626.158203125 534 402.158203125 534 c 0
508.905273438 249 m 1
 490.21484375 143 396.038085938 142 336.038085938 142 c 0
 333.038085938 142 l 0
 218.038085938 142 177.265625 200 196.30859375 308 c 0
 215.3515625 416 276.931640625 476 391.931640625 476 c 0
 394.931640625 476 l 0
 454.931640625 476 548.754882812 475 530.064453125 369 c 1
 457.064453125 369 l 1
 465.3515625 416 418.3515625 416 381.3515625 416 c 0
 308.3515625 416 279.888671875 368 269.30859375 308 c 0
 258.729492188 248 270.44140625 201 343.44140625 201 c 0
 380.44140625 201 427.618164062 202 435.905273438 249 c 1
 508.905273438 249 l 1
EndSplineSet
EndChar

StartChar: ordfeminine
Encoding: 170 170 105
Width: 617
Flags: HW
HStem: 205 90<117 500> 375 67<199.959 426> 530 66<203.846 426> 682 68<199.593 397.728>
VStem: 117 75<453.521 517.418> 426 74<442 530 596 654.852>
LayerCount: 2
Fore
SplineSet
169.016601562 295 m 0
 552.016601562 295 l 0
 536.147460938 205 l 0
 153.147460938 205 l 0
 169.016601562 295 l 0
277.6953125 486 m 0
 270.11328125 443 325.936523438 442 385.936523438 442 c 3
 420.936523438 442 445.936523438 442 483.936523438 442 c 2
 503.936523438 442 l 9
 519.453125 530 l 17
 501.453125 530 l 18
 471.453125 530 436.453125 530 401.453125 530 c 0
 352.453125 530 285.27734375 529 277.6953125 486 c 0
285.259765625 648 m 1
 262.310546875 705 l 1
 317.541992188 729 378.245117188 750 440.245117188 750 c 3
 618.245117188 750 610.733398438 628 605.090820312 596 c 0
 589.926757812 510 581.287109375 461 566.123046875 375 c 17
 473.123046875 375 l 2
 447.123046875 375 407.123046875 375 374.123046875 375 c 3
 257.123046875 375 187.883789062 402 202.6953125 486 c 0
 219.26953125 580 296.090820312 596 413.090820312 596 c 3
 437.090820312 596 476.090820312 596 516.090820312 596 c 2
 531.090820312 596 l 1
 543.786132812 668 490.254882812 682 428.254882812 682 c 1
 362.254882812 682 325.081054688 664 285.259765625 648 c 1
EndSplineSet
EndChar

StartChar: guillemotleft
Encoding: 171 171 106
Width: 617
Flags: HMW
LayerCount: 2
Fore
SplineSet
358.252929688 285 m 1
 374.123046875 375 l 1
 641.26953125 580 l 1
 623.284179688 478 l 1
 474.1875 330 l 1
 571.091796875 182 l 1
 553.106445312 80 l 1
 358.252929688 285 l 1
128.252929688 285 m 1
 144.123046875 375 l 1
 410.26953125 580 l 1
 392.284179688 478 l 1
 244.1875 330 l 1
 340.091796875 182 l 1
 322.106445312 80 l 1
 128.252929688 285 l 1
EndSplineSet
EndChar

StartChar: logicalnot
Encoding: 172 172 107
Width: 617
Flags: HW
HStem: 285 90<78 449>
VStem: 449 90<125 285>
LayerCount: 2
Fore
SplineSet
144.123046875 375 m 5
 605.123046875 375 l 5
 590.487304688 292 575.67578125 208 561.041015625 125 c 5
 471.041015625 125 l 5
 499.252929688 285 l 5
 128.252929688 285 l 5
 144.123046875 375 l 5
EndSplineSet
EndChar

StartChar: uni00AD
Encoding: 173 173 108
Width: 617
Flags: HW
HStem: 285 90<117 500>
LayerCount: 2
Fore
SplineSet
183.123046875 375 m 4
 566.123046875 375 l 4
 550.252929688 285 l 4
 167.252929688 285 l 4
 183.123046875 375 l 4
EndSplineSet
EndChar

StartChar: registered
Encoding: 174 174 109
Width: 617
Flags: HW
HStem: 0 84<205.242 410.872> 281 55<220 292 350 383.485> 428 48<220 382.412> 534 83<205.242 410.872>
VStem: 0 84<211.704 405.156> 166 54<142 281 336 428> 396 55<352.386 411.742> 534 83<217.256 405.156>
LayerCount: 2
Fore
SplineSet
249.931640625 476 m 1
 298.931640625 476 342.931640625 476 391.931640625 476 c 0
 533.931640625 476 518.356445312 382 518.356445312 382 c 1
 507.424804688 320 418.077148438 284 400.077148438 284 c 1
 476.038085938 142 l 1
 456.038085938 142 435.038085938 142 415.038085938 142 c 1
 341.547851562 281 l 1
 269.547851562 281 l 1
 245.038085938 142 l 1
 191.038085938 142 l 1
 249.931640625 476 l 1
279.24609375 336 m 1
 367.24609375 336 l 2
 455.24609375 336 463.356445312 382 463.356445312 382 c 1
 463.356445312 382 471.467773438 428 383.467773438 428 c 2
 295.467773438 428 l 1
 279.24609375 336 l 1
671.30859375 308 m 0
 671.30859375 308 616 0 308 0 c 0
 0 0 54.30859375 308 54.30859375 308 c 0
 54.30859375 308 108.793945312 617 416.793945312 617 c 0
 724.793945312 617 671.30859375 308 671.30859375 308 c 0
402.158203125 534 m 0
 178.158203125 534 138.30859375 308 138.30859375 308 c 0
 138.30859375 308 98.8115234375 84 322.811523438 84 c 0
 546.811523438 84 588.30859375 308 588.30859375 308 c 0
 588.30859375 308 626.158203125 534 402.158203125 534 c 0
EndSplineSet
EndChar

StartChar: macron
Encoding: 175 175 110
Width: 617
Flags: HW
HStem: 528 89<117 502>
LayerCount: 2
Fore
SplineSet
225.793945312 617 m 0
 610.793945312 617 l 0
 595.100585938 528 l 0
 210.100585938 528 l 0
 225.793945312 617 l 0
EndSplineSet
EndChar

StartChar: degree
Encoding: 176 176 111
Width: 617
Flags: HW
HStem: 375 83<245.809 370.508> 667 83<247.566 368.75>
VStem: 117 90<494.073 630.371> 410 90<494.073 627.057>
LayerCount: 2
Fore
SplineSet
599.095703125 562 m 4
 566.298828125 376 378.123046875 375 374.123046875 375 c 4
 370.123046875 375 183.298828125 376 216.095703125 562 c 4
 249.245117188 750 440.245117188 750 440.245117188 750 c 5
 440.245117188 750 632.245117188 750 599.095703125 562 c 4
425.610351562 667 m 5
 425.610351562 667 324.43359375 666 306.095703125 562 c 4
 287.7578125 458 388.7578125 458 388.7578125 458 c 5
 388.7578125 458 490.7578125 458 509.095703125 562 c 4
 527.43359375 666 425.610351562 667 425.610351562 667 c 5
EndSplineSet
EndChar

StartChar: plusminus
Encoding: 177 177 112
Width: 617
Flags: HW
HStem: 150 90<78 539> 468 90<78 264 354 539>
VStem: 264 90<330 468 558 696>
LayerCount: 2
Fore
SplineSet
120.318359375 240 m 0
 581.318359375 240 l 0
 565.44921875 150 l 0
 104.44921875 150 l 0
 120.318359375 240 l 0
637.390625 558 m 1
 621.521484375 468 l 1
 436.521484375 468 l 1
 412.1875 330 l 1
 322.1875 330 l 1
 346.521484375 468 l 1
 160.521484375 468 l 1
 176.390625 558 l 1
 362.390625 558 l 1
 386.723632812 696 l 1
 476.723632812 696 l 1
 452.390625 558 l 1
 637.390625 558 l 1
EndSplineSet
EndChar

StartChar: uni00B2
Encoding: 178 178 113
Width: 617
VWidth: 0
Flags: HW
HStem: 375 63<301 449> 676 74<246.095 370.308>
VStem: 168 74<625 669.844> 375 74<583.909 670.462>
LayerCount: 2
Fore
SplineSet
378.231445312 438 m 1
 526.231445312 438 l 1
 515.123046875 375 l 1
 421.123046875 375 264.123046875 375 234.123046875 375 c 1
 235.533203125 383 242.41015625 422 245.231445312 438 c 1
 245.231445312 438 474.272460938 563 485.204101562 625 c 0
 491.551757812 661 493.197265625 676 427.197265625 676 c 0
 361.197265625 676 358.375976562 660 352.204101562 625 c 1
 278.204101562 625 l 1
 288.784179688 685 300.245117188 750 440.245117188 750 c 0
 580.245117188 750 568.725585938 679 559.204101562 625 c 0
 545.626953125 548 378.231445312 438 378.231445312 438 c 1
EndSplineSet
EndChar

StartChar: uni00B3
Encoding: 179 179 114
Width: 617
Flags: HW
HStem: 375 74<243.368 373.189> 543 63<308 358.757> 676 74<257.107 361.555>
VStem: 168 74<451.123 486> 182 74<650 674.07> 362 74<609.982 674.576> 375 74<451.78 536.412>
LayerCount: 2
Fore
SplineSet
534.6953125 486 m 0xe2
 520.764648438 407 460.123046875 375 374.123046875 375 c 0
 288.123046875 375 240.646484375 412 253.6953125 486 c 1
 327.6953125 486 l 1
 321.170898438 449 333.170898438 449 387.170898438 449 c 0
 441.170898438 449 454.170898438 449 460.6953125 486 c 0xf2
 468.629882812 531 457.745117188 543 403.745117188 543 c 1
 414.854492188 606 l 1
 457.854492188 606 470.44140625 615 476.612304688 650 c 0
 481.197265625 676 470.197265625 676 427.197265625 676 c 0
 384.197265625 676 375.197265625 676 370.612304688 650 c 1
 296.612304688 650 l 1
 307.192382812 710 354.245117188 750 440.245117188 750 c 0
 526.245117188 750 561.192382812 710 550.612304688 650 c 0xec
 543.20703125 608 514.033203125 590 495.211914062 574 c 1
 508.390625 558 544.921875 544 534.6953125 486 c 0xe2
EndSplineSet
EndChar

StartChar: uni00B5
Encoding: 181 181 116
Width: 617
Flags: HW
HStem: 0 90<227.094 431.289> 480 20G<78 168 449 539>
VStem: 78 90<-249 41 153.446 500> 449 90<109.673 500>
LayerCount: 2
Fore
SplineSet
537.163085938 500 m 1
 627.163085938 500 l 1
 614.8203125 430 594.895507812 317 579.555664062 230 c 0
 539 0 538 0 308 0 c 0
 246 0 203.998046875 17 175.229492188 41 c 1
 124.094726562 -249 l 1
 34.0947265625 -249 l 1
 78.1767578125 1 122.08203125 250 166.163085938 500 c 1
 256.163085938 500 l 1
 208.555664062 230 l 1
 208.555664062 230 183.869140625 90 323.869140625 90 c 0
 463.869140625 90 464.869140625 90 489.555664062 230 c 0
 504.013671875 312 524.8203125 430 537.163085938 500 c 1
EndSplineSet
EndChar

StartChar: paragraph
Encoding: 182 182 117
Width: 617
Flags: HW
HStem: 0 21G<308 392 455 539> 660 90<392 455>
VStem: 78 314<439.92 640.08> 308 84<0 330> 455 84<0 660>
LayerCount: 2
Fore
SplineSet
671.245117188 750 m 1xe8
 539 0 l 1
 455 0 l 1
 571.375976562 660 l 1
 508.375976562 660 l 1
 392 0 l 1
 308 0 l 1
 366.1875 330 l 1xd8
 322.1875 330 l 2
 136.1875 330 173.216796875 540 173.216796875 540 c 1
 173.216796875 540 210.245117188 750 396.245117188 750 c 0
 473.245117188 750 594.245117188 750 671.245117188 750 c 1xe8
EndSplineSet
EndChar

StartChar: periodcentered
Encoding: 183 183 118
Width: 617
Flags: HW
HStem: 285 180<254.809 361.574>
VStem: 219 179<321.426 428.574>
LayerCount: 2
Fore
SplineSet
389.9921875 465 m 0
 434.9921875 465 472.057617188 420 464.123046875 375 c 0
 456.1875 330 403.252929688 285 358.252929688 285 c 0
 313.252929688 285 277.1875 330 285.123046875 375 c 0
 293.057617188 420 344.9921875 465 389.9921875 465 c 0
EndSplineSet
EndChar

StartChar: uni00B9
Encoding: 185 185 120
Width: 617
VWidth: 0
Flags: HW
HStem: 730 20G<305.386 410>
VStem: 336 74<375 663>
LayerCount: 2
Fore
SplineSet
361.211914062 574 m 1
 269.211914062 574 l 17
 455.245117188 750 l 1
 477.245117188 750 520.245117188 750 542.245117188 750 c 1
 476.123046875 375 l 1
 402.123046875 375 l 1
 452.905273438 663 l 1
 361.211914062 574 l 1
EndSplineSet
EndChar

StartChar: ordmasculine
Encoding: 186 186 121
Width: 617
VWidth: 0
Flags: HW
HStem: 205 90<117 500> 375 83<245.809 370.508> 667 83<247.566 368.75>
VStem: 117 90<494.073 630.371> 410 90<494.073 627.057>
LayerCount: 2
Fore
SplineSet
169.016601562 295 m 5
 552.016601562 295 l 5
 536.147460938 205 l 5
 153.147460938 205 l 5
 169.016601562 295 l 5
599.095703125 562 m 4
 566.298828125 376 378.123046875 375 374.123046875 375 c 4
 370.123046875 375 183.298828125 376 216.095703125 562 c 4
 249.245117188 750 440.245117188 750 440.245117188 750 c 5
 440.245117188 750 632.245117188 750 599.095703125 562 c 4
425.610351562 667 m 5
 425.610351562 667 324.43359375 666 306.095703125 562 c 4
 287.7578125 458 388.7578125 458 388.7578125 458 c 5
 388.7578125 458 490.7578125 458 509.095703125 562 c 4
 527.43359375 666 425.610351562 667 425.610351562 667 c 5
EndSplineSet
EndChar

StartChar: guillemotright
Encoding: 187 187 122
Width: 617
Flags: HW
LayerCount: 2
Fore
SplineSet
358.252929688 285 m 5
 92.1064453125 80 l 5
 110.091796875 182 l 5
 259.1875 330 l 5
 162.284179688 478 l 5
 180.26953125 580 l 5
 374.123046875 375 l 5
 358.252929688 285 l 5
589.252929688 285 m 5
 322.106445312 80 l 5
 340.091796875 182 l 5
 490.1875 330 l 5
 392.284179688 478 l 5
 410.26953125 580 l 5
 605.123046875 375 l 5
 589.252929688 285 l 5
EndSplineSet
EndChar

StartChar: OE
Encoding: 338 338 123
Width: 617
Flags: HW
HStem: 0 90<203.409 275.711 398 539> 330 90<398 494> 660 90<203.409 272.105 398 539>
VStem: 78 90<146.795 603.205> 308 90<136.613 330 420 604.931>
CounterMasks: 1 e0
LayerCount: 2
Fore
SplineSet
440.245117188 750 m 1
 530.245117188 750 l 1
 671.245117188 750 l 1
 655.375976562 660 l 1
 514.375976562 660 l 1
 505.912109375 612 l 1
 472.057617188 420 l 1
 568.057617188 420 l 1
 552.1875 330 l 1
 456.1875 330 l 1
 413.869140625 90 l 1
 554.869140625 90 l 1
 539 0 l 1
 398 0 l 1
 308 0 l 1
 310.116210938 12 l 1
 284 0 260 0 238 0 c 0
 168 0 78 0 144.123046875 375 c 0
 210.245117188 750 300.245117188 750 370.245117188 750 c 0
 392.245117188 750 428.245117188 750 438.12890625 738 c 1
 440.245117188 750 l 1
354.375976562 660 m 0
 334.375976562 660 284.375976562 660 234.123046875 375 c 0
 183.869140625 90 233.869140625 90 253.869140625 90 c 0
 279.869140625 90 323.869140625 90 374.123046875 375 c 0
 424.375976562 660 372.375976562 660 354.375976562 660 c 0
EndSplineSet
EndChar

StartChar: oe
Encoding: 339 339 124
Width: 617
Flags: HW
HStem: 0 74<161.631 254.73 371.188 539> 207 86<354 465> 414 86<165.122 256.688 356.553 457.303>
VStem: 78 74<80.9412 406.791> 264 90<92.1538 207 293 410.167> 465 74<293 407.173>
LayerCount: 2
Fore
SplineSet
405.6640625 293 m 1
 516.6640625 293 l 1
 536.94140625 408 536.999023438 414 476.999023438 414 c 0
 430.999023438 414 425.94140625 408 416.419921875 354 c 0
 414.303710938 342 411.834960938 328 409.013671875 312 c 1
 405.6640625 293 l 1
282.999023438 414 m 0
 234.999023438 414 224.293945312 410 196.08203125 250 c 0
 167.869140625 90 165.047851562 74 223.047851562 74 c 0
 277.047851562 74 279.869140625 90 308.08203125 250 c 0
 336.293945312 410 336.999023438 414 282.999023438 414 c 0
390.5 207 m 1
 389.618164062 202 l 0
 370.575195312 94 367.047851562 74 489.047851562 74 c 2
 552.047851562 74 l 1
 539 0 l 1
 417 0 353.939453125 11 323.526367188 20 c 1
 302 0 270 0 210 0 c 0
 78 0 78 0 122.08203125 250 c 0
 166.163085938 500 166.163085938 500 298.163085938 500 c 0
 350.163085938 500 379.341796875 484 397.341796875 484 c 1
 419.458007812 496 445.163085938 500 492.163085938 500 c 0
 622.163085938 500 627.163085938 500 583.08203125 250 c 2
 575.5 207 l 1
 390.5 207 l 1
EndSplineSet
EndChar

StartChar: questiondown
Encoding: 191 191 126
Width: 617
Flags: HW
HStem: -248 90<192.352 424.083> 37 89<191.162 264> 412 180<254.809 361.574>
VStem: 78 90<-134.573 14.0583> 219 179<448.426 555.574> 264 90<126 252> 449 90<-134.074 -60>
LayerCount: 2
Fore
SplineSet
380.646484375 412 m 0xfa
 335.646484375 412 299.581054688 457 307.516601562 502 c 0
 315.451171875 547 367.385742188 592 412.385742188 592 c 0
 457.385742188 592 494.451171875 547 486.516601562 502 c 0
 478.581054688 457 425.646484375 412 380.646484375 412 c 0xfa
286.216796875 126 m 1xf6
 308.434570312 252 l 1
 398.434570312 252 l 1
 360.524414062 37 l 1
 314.524414062 37 l 2
 309.524414062 37 l 0
 222.524414062 37 174.34765625 36 157.419921875 -60 c 0
 140.140625 -158 190.140625 -158 280.140625 -158 c 0
 370.140625 -158 421.140625 -158 438.419921875 -60 c 1
 528.419921875 -60 l 1
 495.270507812 -248 404.270507812 -248 264.270507812 -248 c 0
 124.270507812 -248 34.2705078125 -248 67.419921875 -60 c 0
 96.8671875 107 171.864257812 124 286.216796875 126 c 1xf6
EndSplineSet
EndChar

StartChar: AE
Encoding: 198 198 133
Width: 617
Flags: HW
HStem: 0 90<398 539> 205 90<242 308> 330 90<398 494> 660 90<398 539>
VStem: 308 90<90 205 295 330 420 564>
LayerCount: 2
Fore
SplineSet
256.147460938 205 m 1
 170 0 l 1
 78 0 l 1
 392.245117188 750 l 1
 671.245117188 750 l 1
 655.375976562 660 l 1
 514.375976562 660 l 1
 472.057617188 420 l 1
 568.057617188 420 l 1
 552.1875 330 l 1
 456.1875 330 l 1
 413.869140625 90 l 1
 554.869140625 90 l 1
 539 0 l 1
 308 0 l 1
 344.147460938 205 l 1
 256.147460938 205 l 1
360.016601562 295 m 1
 407.448242188 564 l 1
 294.016601562 295 l 1
 360.016601562 295 l 1
EndSplineSet
EndChar

StartChar: Ccedilla
Encoding: 199 199 134
Width: 617
Flags: HW
HStem: -250 62<198 367.844> -102 63<354 371.999> 1 89<238.682 264 354 422.754> 660 90<240.447 420.641>
VStem: 78 90<189.085 561.23> 264 90<-39 1> 376 73<-179.426 -108.935> 449 90<114.531 160 590 630.913>
LayerCount: 2
Fore
SplineSet
323.869140625 90 m 2xfd
 325.869140625 90 l 2
 371.869140625 90 464.869140625 90 477.211914062 160 c 1
 567.211914062 160 l 1xfd
 543.408203125 25 439.705078125 4 354.176757812 1 c 1
 347.123046875 -39 l 1
 349.123046875 -39 l 2
 350.123046875 -39 l 0
 372.123046875 -39 441.947265625 -40 423.609375 -144 c 0
 404.91796875 -250 331.91796875 -250 263.91796875 -250 c 2
 153.91796875 -250 l 1
 164.850585938 -188 l 1
 274.850585938 -188 l 2
 317.850585938 -188 344.966796875 -176 350.609375 -144 c 0xfe
 356.250976562 -112 338.014648438 -102 290.014648438 -102 c 2
 246.014648438 -102 l 1
 264.705078125 4 l 1
 153.87890625 22 99.3359375 121 144.123046875 375 c 0
 194.375976562 660 300.245117188 750 440.245117188 750 c 0
 530.245117188 750 671.245117188 750 643.033203125 590 c 1
 553.033203125 590 l 1
 565.375976562 660 472.375976562 660 426.375976562 660 c 2
 424.375976562 660 l 2
 334.375976562 660 272.033203125 590 234.123046875 375 c 0
 196.211914062 160 233.869140625 90 323.869140625 90 c 2xfd
EndSplineSet
EndChar

StartChar: Eth
Encoding: 208 208 143
Width: 617
VWidth: 975
Flags: HW
HStem: 0 90<168 363.971> 330 90<168 354> 660 90<168 363.971>
VStem: 78 90<90 330 420 660> 449 90<222.473 527.527>
CounterMasks: 1 e0
LayerCount: 2
Fore
SplineSet
183.869140625 90 m 1
 230.869140625 90 276.869140625 90 323.869140625 90 c 0
 463.869140625 90 515.123046875 375 515.123046875 375 c 1
 515.123046875 375 564.375976562 660 424.375976562 660 c 2
 284.375976562 660 l 1
 242.057617188 420 l 1
 428.057617188 420 l 1
 412.1875 330 l 1
 226.1875 330 l 1
 183.869140625 90 l 1
210.245117188 750 m 1
 440.245117188 750 l 2
 670.245117188 750 605.123046875 375 605.123046875 375 c 1
 605.123046875 375 538 0 308 0 c 2
 78 0 l 1
 210.245117188 750 l 1
EndSplineSet
EndChar

StartChar: multiply
Encoding: 215 215 150
Width: 617
Flags: HW
LayerCount: 2
Fore
SplineSet
452.228515625 455 m 1
 570.30859375 308 l 1
 494.200195312 245 l 1
 379.120117188 392 l 1
 209.200195312 245 l 1
 156.30859375 308 l 1
 326.228515625 455 l 1
 208.1484375 602 l 1
 282.2578125 665 l 1
 401.336914062 518 l 1
 569.2578125 665 l 1
 622.1484375 602 l 1
 452.228515625 455 l 1
EndSplineSet
EndChar

StartChar: Oslash
Encoding: 216 216 151
Width: 617
Flags: HW
HStem: 0 90<249.722 399.002> 660 90<217.26 367.545>
VStem: 78 90<201.624 591.108> 449 90<158.892 551.502>
LayerCount: 2
Fore
SplineSet
213 0 m 1
 117 0 l 1
 167.516601562 88 l 1
 135.744140625 146 120.142578125 239 144.123046875 375 c 0
 210.245117188 750 300.245117188 750 440.245117188 750 c 0
 468.245117188 750 496.834960938 742 524.013671875 726 c 1
 536.245117188 750 l 1
 632.245117188 750 l 1
 582.551757812 661 l 1
 615.325195312 603 629.103515625 511 605.123046875 375 c 0
 539 0 448 0 308 0 c 0
 280 0 253.41015625 8 226.231445312 24 c 1
 213 0 l 1
424.375976562 660 m 0
 334.375976562 660 284.375976562 660 234.123046875 375 c 0
 217.547851562 281 212.262695312 217 214.857421875 175 c 1
 483.670898438 656 l 1
 466.375976562 660 446.375976562 660 424.375976562 660 c 0
533.387695312 575 m 1
 265.575195312 94 l 1
 282.869140625 90 301.869140625 90 323.869140625 90 c 0
 413.869140625 90 464.869140625 90 515.123046875 375 c 0
 531.697265625 469 535.982421875 533 533.387695312 575 c 1
EndSplineSet
EndChar

StartChar: Thorn
Encoding: 222 222 157
Width: 617
VWidth: 975
Flags: HW
HStem: 0 21G<78 168> 251 90<168 392.08> 570 90<168 392.08> 730 20G<78 168>
VStem: 78 90<0 251 341 570 660 750> 449 90<394.897 515.398>
LayerCount: 2
Fore
SplineSet
619.228515625 455 m 1
 619.228515625 455 582.2578125 251 352.2578125 251 c 2
 212.2578125 251 l 1
 168 0 l 1
 78 0 l 1
 136.716796875 333 151.528320312 417 210.245117188 750 c 1
 300.245117188 750 l 1
 284.375976562 660 l 1
 424.375976562 660 l 2
 654.375976562 660 619.228515625 455 619.228515625 455 c 1
268.506835938 570 m 1
 228.127929688 341 l 1
 368.127929688 341 l 2
 508.127929688 341 529.228515625 455 529.228515625 455 c 1
 529.228515625 455 548.506835938 570 408.506835938 570 c 0
 361.506835938 570 315.506835938 570 268.506835938 570 c 1
EndSplineSet
EndChar

StartChar: germandbls
Encoding: 223 223 158
Width: 617
Flags: HW
HStem: 0 90<308 397.573> 354 90<308 383.573> 660 90<231.251 384.953>
VStem: 100 90<0 619.025> 427 89<485.039 619.325> 449 90<141.178 302.784>
LayerCount: 2
Fore
SplineSet
323.869140625 90 m 1xf4
 413.869140625 90 472.275390625 132 488.14453125 222 c 0xf4
 504.013671875 312 460.419921875 354 370.419921875 354 c 1
 386.2890625 444 l 1
 456.2890625 444 511.989257812 482 524.33203125 552 c 0
 536.67578125 622 494.375976562 660 424.375976562 660 c 0
 354.375976562 660 299.67578125 622 287.33203125 552 c 2
 190 0 l 1
 100 0 l 1
 197.33203125 552 l 2
 218.4921875 672 300.245117188 750 440.245117188 750 c 0
 580.245117188 750 634.4921875 672 613.33203125 552 c 0xf8
 598.521484375 468 550.467773438 428 519.177734375 398 c 1
 539.888671875 368 598.951171875 340 578.14453125 222 c 0
 556.985351562 102 448 0 308 0 c 1
 323.869140625 90 l 1xf4
EndSplineSet
EndChar

StartChar: ae
Encoding: 230 230 165
Width: 617
Flags: HW
HStem: 0 74<161.51 264 371.111 539> 207 86<161.51 264 354 465> 414 86<138.136 260.398 356.597 457.303>
VStem: 78 74<81.5516 197.876> 264 90<91.9721 207 293 410.875> 465 74<293 407.173>
LayerCount: 2
Fore
SplineSet
315.6640625 293 m 5
 323.24609375 336 l 5
 323.951171875 340 l 6
 334.53125 400 335.999023438 414 287.999023438 414 c 4
 246.999023438 414 223.412109375 405 180.123046875 375 c 5
 155.231445312 438 l 5
 196.521484375 468 228.163085938 500 303.163085938 500 c 4
 340.163085938 500 359.047851562 488 375.874023438 470 c 5
 397.163085938 500 426.163085938 500 492.163085938 500 c 4
 622.163085938 500 627.163085938 500 583.08203125 250 c 6
 575.5 207 l 5
 390.5 207 l 5
 389.618164062 202 l 0
 370.221679688 92 368.047851562 74 489.047851562 74 c 6
 552.047851562 74 l 5
 539 0 l 5
 215 0 l 6
 105 0 82.9375 28 102.685546875 140 c 4
 124.903320312 266 156.6640625 293 266.6640625 293 c 6
 315.6640625 293 l 5
176.685546875 140 m 4
 166.458984375 82 187.047851562 74 228.047851562 74 c 6
 277.047851562 74 l 5
 300.5 207 l 5
 251.5 207 l 6
 210.5 207 186.913085938 198 176.685546875 140 c 4
405.6640625 293 m 5
 516.6640625 293 l 5
 536.94140625 408 536.999023438 414 476.999023438 414 c 4
 430.999023438 414 425.94140625 408 416.419921875 354 c 6
 405.6640625 293 l 5
EndSplineSet
EndChar

StartChar: ccedilla
Encoding: 231 231 166
Width: 617
Flags: HW
HStem: -250 62<198 367.844> -102 63<354 371.999> 1 89<233.07 264 354 422.754> 410 90<234.787 420.641>
VStem: 78 90<159.612 339.422> 264 90<-39 1> 376 73<-179.426 -108.935> 449 90<114.531 160 340 380.913>
LayerCount: 2
Fore
SplineSet
323.869140625 90 m 2xfd
 325.869140625 90 l 2
 371.869140625 90 464.869140625 90 477.211914062 160 c 1
 567.211914062 160 l 1xfd
 543.408203125 25 439.705078125 4 354.176757812 1 c 1
 347.123046875 -39 l 1
 349.123046875 -39 l 2
 350.123046875 -39 l 0
 372.123046875 -39 441.947265625 -40 423.609375 -144 c 0
 404.91796875 -250 331.91796875 -250 263.91796875 -250 c 2
 153.91796875 -250 l 1
 164.850585938 -188 l 1
 274.850585938 -188 l 2
 317.850585938 -188 344.966796875 -176 350.609375 -144 c 0xfe
 356.250976562 -112 338.014648438 -102 290.014648438 -102 c 2
 246.014648438 -102 l 5
 264.529296875 3 l 1
 153.703125 21 97.04296875 108 122.08203125 250 c 0
 150.293945312 410 256.163085938 500 396.163085938 500 c 0
 486.163085938 500 627.163085938 500 598.951171875 340 c 1
 508.951171875 340 l 1
 521.293945312 410 428.293945312 410 382.293945312 410 c 2
 380.293945312 410 l 2
 290.293945312 410 227.951171875 340 212.08203125 250 c 0
 196.211914062 160 233.869140625 90 323.869140625 90 c 2xfd
EndSplineSet
EndChar

StartChar: eth
Encoding: 240 240 175
Width: 617
Flags: HW
HStem: 0 90<223.937 392.283> 375 90<223.937 392.51> 730 20G<250.25 266.5 427.593 474.688>
VStem: 78 90<147.097 317.122> 449 90<147.52 316.797 414 497.027>
LayerCount: 2
Fore
SplineSet
521.999023438 414 m 1
 537.516601562 502 505.625 565 465.20703125 608 c 1
 313.100585938 528 l 1
 328.793945312 617 l 1
 406.670898438 656 l 1
 371.549804688 678 340.959960938 686 340.959960938 686 c 1
 396.245117188 750 l 1
 401.245117188 750 442.248046875 733 486.723632812 696 c 1
 597.245117188 750 l 1
 616.959960938 686 l 1
 537.5546875 644 l 1
 586.974609375 584 626.282226562 495 605.123046875 375 c 0
 595.600585938 321 586.255859375 268 579.908203125 232 c 0
 557.337890625 104 448 0 308 0 c 0
 168 0 93.869140625 90 118.908203125 232 c 0
 143.946289062 374 249.9921875 465 389.9921875 465 c 0
 445.9921875 465 502.231445312 438 521.999023438 414 c 1
323.869140625 90 m 0
 413.869140625 90 474.038085938 142 489.908203125 232 c 0
 505.77734375 322 464.123046875 375 374.123046875 375 c 0
 284.123046875 375 224.77734375 322 208.908203125 232 c 0
 193.038085938 142 233.869140625 90 323.869140625 90 c 0
EndSplineSet
EndChar

StartChar: divide
Encoding: 247 247 182
Width: 617
Flags: HW
HStem: 220 123<255.099 361.562> 410 90<78 539> 566 124<254.438 360.901>
VStem: 247 123<228.099 334.562 574.438 681.562>
LayerCount: 2
Fore
SplineSet
368.48046875 343 m 0
 413.48046875 343 427.482421875 326 419.547851562 281 c 0
 411.61328125 236 391.791992188 220 346.791992188 220 c 0
 301.791992188 220 288.61328125 236 296.547851562 281 c 0
 304.482421875 326 323.48046875 343 368.48046875 343 c 0
429.666015625 690 m 0
 474.666015625 690 487.66796875 673 479.733398438 628 c 0
 471.798828125 583 452.80078125 566 407.80078125 566 c 0
 362.80078125 566 348.798828125 583 356.733398438 628 c 0
 364.66796875 673 384.666015625 690 429.666015625 690 c 0
166.163085938 500 m 0
 627.163085938 500 l 0
 611.293945312 410 l 0
 150.293945312 410 l 0
 166.163085938 500 l 0
EndSplineSet
EndChar

StartChar: oslash
Encoding: 248 248 183
Width: 617
Flags: HW
HStem: 0 90<295 413.563> 410 90<202.63 322>
VStem: 78 90<126.942 368.422> 449 90<131.578 373.058>
LayerCount: 2
Fore
SplineSet
380.293945312 410 m 2
 290.293945312 410 240.293945312 410 212.08203125 250 c 0
 197.623046875 168 202.5703125 128 225.04296875 108 c 1
 394.293945312 410 l 1
 380.293945312 410 l 2
583.08203125 250 m 0
 539 0 448 0 308 0 c 2
 260 0 l 1
 190.958984375 -125 l 1
 94.958984375 -125 l 1
 173.46875 14 l 1
 119.34765625 36 94.927734375 96 122.08203125 250 c 0
 166.163085938 500 256.163085938 500 396.163085938 500 c 2
 444.163085938 500 l 1
 514.204101562 625 l 1
 610.204101562 625 l 1
 531.6953125 486 l 1
 585.815429688 464 610.236328125 404 583.08203125 250 c 0
310.869140625 90 m 1
 323.869140625 90 l 2
 413.869140625 90 464.869140625 90 493.08203125 250 c 0
 507.541015625 332 502.59375 372 480.120117188 392 c 1
 310.869140625 90 l 1
EndSplineSet
EndChar

StartChar: thorn
Encoding: 254 254 189
Width: 617
VWidth: 0
Flags: HW
HStem: 45 90<187.192 392.403> 365 90<187.192 392.403> 730 20G<78 168>
VStem: 78 90<-250 90 155.393 344.607 410 750> 449 90<189.602 310.398>
LayerCount: 2
Fore
SplineSet
210.245117188 750 m 1
 300.245117188 750 l 1
 240.293945312 410 l 1
 240.293945312 410 248.228515625 455 388.228515625 455 c 0
 618.228515625 455 583.08203125 250 583.08203125 250 c 1
 583.08203125 250 545.934570312 45 315.934570312 45 c 0
 175.934570312 45 183.869140625 90 183.869140625 90 c 1
 123.91796875 -250 l 1
 33.91796875 -250 l 1
 92.634765625 83 151.528320312 417 210.245117188 750 c 1
199.739257812 180 m 1
 199.739257812 180 191.803710938 135 331.803710938 135 c 0
 471.803710938 135 493.08203125 250 493.08203125 250 c 1
 493.08203125 250 512.359375 365 372.359375 365 c 0
 232.359375 365 224.424804688 320 224.424804688 320 c 1
 199.739257812 180 l 1
EndSplineSet
EndChar

StartChar: .notdef
Encoding: 65540 -1 191
Width: 617
Flags: W
HStem: 0 60<209 408> 606 60<209 408>
VStem: 119 90<60 606> 408 90<60 606>
LayerCount: 2
Fore
SplineSet
119 0 m 1
 119 666 l 1
 498 666 l 1
 498 0 l 1
 119 0 l 1
209 60 m 1
 408 60 l 1
 408 606 l 1
 209 606 l 1
 209 60 l 1
EndSplineSet
Validated: 1
EndChar

StartChar: dotlessi
Encoding: 305 305 192
Width: 617
Flags: HW
HStem: 0 90<78 264 354 539> 410 90<123 264>
VStem: 264 90<90 410>
LayerCount: 2
Fore
SplineSet
211.163085938 500 m 4
 442.163085938 500 l 4
 369.869140625 90 l 4
 554.869140625 90 l 4
 539 0 l 4
 78 0 l 4
 93.869140625 90 l 4
 279.869140625 90 l 4
 336.293945312 410 l 4
 195.293945312 410 l 4
 211.163085938 500 l 4
EndSplineSet
EndChar

StartChar: dieresis
Encoding: 168 168 193
Width: 617
Flags: HW
HStem: 566 124<130.438 236.901 380.438 486.901>
VStem: 122 123<574.438 681.562> 372 123<574.438 681.562>
LayerCount: 2
Fore
SplineSet
555.666015625 690 m 0
 600.666015625 690 613.66796875 673 605.733398438 628 c 0
 597.798828125 583 578.80078125 566 533.80078125 566 c 0
 488.80078125 566 474.798828125 583 482.733398438 628 c 0
 490.66796875 673 510.666015625 690 555.666015625 690 c 0
305.666015625 690 m 0
 350.666015625 690 363.66796875 673 355.733398438 628 c 0
 347.798828125 583 328.80078125 566 283.80078125 566 c 0
 238.80078125 566 224.798828125 583 232.733398438 628 c 0
 240.66796875 673 260.666015625 690 305.666015625 690 c 0
EndSplineSet
EndChar

StartChar: acute
Encoding: 180 180 194
Width: 617
Flags: HW
HStem: 545 205
VStem: 386 96<699.605 735.37>
LayerCount: 2
Fore
SplineSet
378.098632812 545 m 6
 366.098632812 545 361.685546875 554 363.80078125 566 c 4
 373.735351562 611 445.2578125 665 512.779296875 719 c 5
 512.779296875 719 550.245117188 750 580.245117188 750 c 6
 581.245117188 750 l 6
 599.245117188 750 611.248046875 733 608.07421875 715 c 4
 601.784179688 685 563.317382812 654 563.317382812 654 c 5
 495.795898438 600 424.098632812 545 380.098632812 545 c 6
 378.098632812 545 l 6
EndSplineSet
EndChar

StartChar: cedilla
Encoding: 184 184 195
Width: 617
Flags: HW
HStem: -250 62<198 367.844> -102 63<354 371.999>
VStem: 264 90<-39 90> 376 73<-179.426 -108.935>
LayerCount: 2
Fore
SplineSet
369.869140625 90 m 1
 347.123046875 -39 l 1
 349.123046875 -39 l 2
 350.123046875 -39 l 0
 372.123046875 -39 441.947265625 -40 423.609375 -144 c 0
 404.91796875 -250 331.91796875 -250 263.91796875 -250 c 2
 153.91796875 -250 l 1
 164.850585938 -188 l 1
 274.850585938 -188 l 2
 317.850585938 -188 344.966796875 -176 350.609375 -144 c 0
 356.250976562 -112 338.014648438 -102 290.014648438 -102 c 2
 246.014648438 -102 l 1
 279.869140625 90 l 1
 369.869140625 90 l 1
EndSplineSet
EndChar

StartChar: uniE0A0
Encoding: 57504 57504 196
Width: 617
Flags: W
VStem: 87 161<-408 -10.9193 293 961> 417 97<282.586 600>
LayerCount: 2
Fore
SplineSet
248 -408 m 1
 87 -408 l 1
 87 -123 l 2
 87 -52 102 5 133 50 c 0
 154 81 187 111 232 141 c 2
 320 200 l 2
 355 223 380 251 395 282 c 0
 410 313 417 354 417 405 c 2
 417 600 l 1
 296 600 l 1
 466 802 l 1
 636 600 l 1
 514 600 l 1
 514 372 l 2
 514 296 504 238 483 198 c 0
 462 158 432 124 390 96 c 2
 346 67 l 2
 310 43 285 18 271 -7 c 0
 255 -35 248 -74 248 -123 c 2
 248 -408 l 1
248 293 m 1
 87 188 l 1
 87 961 l 1
 248 961 l 1
 248 293 l 1
EndSplineSet
Validated: 1
EndChar

StartChar: uniE0A1
Encoding: 57505 57505 197
Width: 617
Flags: W
HStem: 300 78<203 408>
VStem: 113 90<378 832> 183 92<-281 -102.273> 183 81<-81.3636 65> 411 93<115.833 252> 423 81<-95 52.5833>
LayerCount: 2
Fore
SplineSet
408 378 m 1xc0
 408 300 l 1
 113 300 l 1
 113 832 l 1
 203 832 l 1
 203 378 l 1
 408 378 l 1xc0
411 252 m 1x88
 504 252 l 1x88
 504 -281 l 1
 406 -281 l 1
 264 65 l 1x94
 275 -165 l 1
 275 -281 l 1
 183 -281 l 1xa0
 183 252 l 1
 279 252 l 1
 423 -95 l 1x94
 411 158 l 1
 411 252 l 1x88
EndSplineSet
Validated: 1
EndChar

StartChar: uniE0A2
Encoding: 57506 57506 198
Width: 617
Flags: W
HStem: -192 140<276 341> 278 110<258.004 359.342> 679 77<253.827 362.76>
VStem: 72 204<-52 155.113> 72 164<151.675 255.996> 143 79<388 645.353> 341 204<-52 155.113> 381 164<151.675 255.341> 395 80<388 645.353>
LayerCount: 2
Fore
SplineSet
154 -192 m 2xe1
 99 -192 72 -165 72 -109 c 2
 72 299 l 2xe9
 72 359 96 388 143 388 c 1
 143 569 l 2
 143 623 159 668 192 704 c 0
 223 738 262 756 309 756 c 0
 356 756 395 738 426 704 c 0
 459 668 475 623 475 569 c 2
 475 388 l 1xe480
 522 388 545 359 545 299 c 2
 545 -109 l 2
 545 -165 518 -192 463 -192 c 2
 154 -192 l 2xe1
309 679 m 0
 283 679 262 669 246 649 c 0
 230 629 222 603 222 569 c 2
 222 388 l 1
 395 388 l 1
 395 569 l 2xe480
 395 603 387 629 371 649 c 0
 355 669 335 679 309 679 c 0
341 -52 m 1xf2
 341 139 l 1xf2
 367 153 381 174 381 204 c 0
 381 224 374 242 360 256 c 0
 346 270 329 278 309 278 c 0
 289 278 272 270 258 256 c 0
 244 242 236 224 236 204 c 0xe9
 236 174 250 153 276 139 c 1
 276 -52 l 1
 341 -52 l 1xf2
EndSplineSet
Validated: 1
EndChar

StartChar: uniE0B0
Encoding: 57520 57520 199
Width: 617
Flags: W
LayerCount: 2
Fore
SplineSet
0 961 m 1
 617 274 l 1
 0 -414 l 1
 0 961 l 1
EndSplineSet
Validated: 1
EndChar

StartChar: uniE0B1
Encoding: 57521 57521 200
Width: 617
Flags: W
LayerCount: 2
Fore
SplineSet
-33 880 m 1
 23 936 l 1
 617 274 l 1
 23 -388 l 1
 -33 -331 l 1
 509 274 l 1
 -33 880 l 1
EndSplineSet
Validated: 1
EndChar

StartChar: uniE0B2
Encoding: 57522 57522 201
Width: 617
Flags: W
LayerCount: 2
Fore
SplineSet
616 -414 m 5
 0 274 l 5
 616 961 l 5
 616 -414 l 5
EndSplineSet
Validated: 1
EndChar

StartChar: uniE0B3
Encoding: 57523 57523 202
Width: 617
Flags: W
LayerCount: 2
Fore
SplineSet
108 274 m 1
 650 -331 l 1
 594 -388 l 1
 0 274 l 1
 594 936 l 1
 650 880 l 1
 108 274 l 1
EndSplineSet
Validated: 1
EndChar

StartChar: block
Encoding: 9608 9608 203
Width: 617
VWidth: 0
Flags: W
VStem: 0 617<-375 875>
LayerCount: 2
Fore
SplineSet
0 875 m 25
 617 875 l 25
 617 -375 l 25
 0 -375 l 25
 0 875 l 25
EndSplineSet
Validated: 1
EndChar

StartChar: brokenbar
Encoding: 166 166 204
Width: 617
VWidth: 0
Flags: HW
HStem: 730 20G<264 354>
VStem: 264 90<-90 240 420 750>
LayerCount: 2
Fore
SplineSet
396.245117188 750 m 1
 486.245117188 750 l 1
 428.057617188 420 l 1
 338.057617188 420 l 1
 396.245117188 750 l 1
396.318359375 240 m 1
 338.130859375 -90 l 1
 248.130859375 -90 l 1
 306.318359375 240 l 1
 396.318359375 240 l 1
EndSplineSet
EndChar

StartChar: bullet
Encoding: 8226 8226 205
Width: 617
Flags: W
VStem: 126 365<239.602 419.904>
LayerCount: 2
Fore
SplineSet
308 512 m 1
 308 512 491 512 491 330 c 0
 491 147 308 147 308 147 c 1
 308 147 126 147 126 330 c 0
 126 512 308 512 308 512 c 1
EndSplineSet
Validated: 1
EndChar

StartChar: uni2219
Encoding: 8729 8729 206
Width: 617
Flags: W
VStem: 126 365<239.602 419.904>
LayerCount: 2
Fore
SplineSet
308 512 m 5
 308 512 491 512 491 330 c 4
 491 147 308 147 308 147 c 5
 308 147 126 147 126 330 c 4
 126 512 308 512 308 512 c 5
EndSplineSet
Validated: 1
EndChar

StartChar: endash
Encoding: 8211 8211 207
Width: 617
Flags: HW
HStem: 285 90<78 539>
LayerCount: 2
Fore
SplineSet
144.123046875 375 m 0
 605.123046875 375 l 0
 589.252929688 285 l 0
 128.252929688 285 l 0
 144.123046875 375 l 0
EndSplineSet
EndChar

StartChar: emdash
Encoding: 8212 8212 208
Width: 617
Flags: HW
HStem: 285 90<0 617>
LayerCount: 2
Fore
SplineSet
66.123046875 375 m 4
 683.123046875 375 l 4
 667.252929688 285 l 4
 50.2529296875 285 l 4
 66.123046875 375 l 4
EndSplineSet
EndChar

StartChar: figuredash
Encoding: 8210 8210 209
Width: 617
Flags: HW
HStem: 285 90<78 539>
LayerCount: 2
Fore
SplineSet
144.123046875 375 m 4
 605.123046875 375 l 4
 589.252929688 285 l 4
 128.252929688 285 l 4
 144.123046875 375 l 4
EndSplineSet
EndChar

StartChar: afii00208
Encoding: 8213 8213 210
Width: 617
Flags: HW
HStem: 285 90<0 617>
LayerCount: 2
Fore
SplineSet
66.123046875 375 m 4
 683.123046875 375 l 4
 667.252929688 285 l 4
 50.2529296875 285 l 4
 66.123046875 375 l 4
EndSplineSet
EndChar

StartChar: uni2011
Encoding: 8209 8209 211
Width: 617
Flags: HW
HStem: 285 90<78 539>
LayerCount: 2
Fore
SplineSet
144.123046875 375 m 4
 605.123046875 375 l 4
 589.252929688 285 l 4
 128.252929688 285 l 4
 144.123046875 375 l 4
EndSplineSet
EndChar

StartChar: uni2010
Encoding: 8208 8208 212
Width: 617
Flags: HW
HStem: 285 90<78 539>
LayerCount: 2
Fore
SplineSet
144.123046875 375 m 4
 605.123046875 375 l 4
 589.252929688 285 l 4
 128.252929688 285 l 4
 144.123046875 375 l 4
EndSplineSet
EndChar

StartChar: uni26A1
Encoding: 9889 9889 213
Width: 617
VWidth: 0
Flags: W
HStem: 730 20G<481.836 490.2>
LayerCount: 2
Fore
SplineSet
344 300 m 1
 537 300 l 1
 120 -250 l 1
 272 200 l 1
 80 200 l 1
 497 750 l 1
 344 300 l 1
EndSplineSet
Validated: 1
EndChar

StartChar: H18533
Encoding: 9679 9679 214
Width: 617
Flags: W
VStem: 59 500<266.98 483.02>
LayerCount: 2
Fore
SplineSet
308 625 m 4
 308 625 559 625 559 375 c 4
 559 125 308 125 308 125 c 4
 308 125 59 125 59 375 c 4
 59 625 308 625 308 625 c 4
EndSplineSet
Validated: 1
EndChar

StartChar: uni25FE
Encoding: 9726 9726 215
Width: 617
VWidth: 0
Flags: W
HStem: 225 300<159 459>
VStem: 159 300<225 525>
LayerCount: 2
Fore
SplineSet
159 525 m 29
 459 525 l 29
 459 225 l 29
 159 225 l 29
 159 525 l 29
EndSplineSet
Validated: 1
EndChar

StartChar: uni25FC
Encoding: 9724 9724 216
Width: 617
VWidth: 0
Flags: W
HStem: 125 500<59 559>
VStem: 59 500<125 625>
LayerCount: 2
Fore
SplineSet
59 625 m 25
 559 625 l 29
 559 125 l 25
 59 125 l 25
 59 625 l 25
EndSplineSet
Validated: 1
EndChar

StartChar: filledbox
Encoding: 9632 9632 217
Width: 617
VWidth: 0
Flags: W
HStem: 0 617<0 617>
VStem: 0 617<0 617>
LayerCount: 2
Fore
SplineSet
0 617 m 29
 617 617 l 29
 617 0 l 29
 0 0 l 29
 0 617 l 29
EndSplineSet
Validated: 1
EndChar

StartChar: H22073
Encoding: 9633 9633 218
Width: 617
VWidth: 0
Flags: W
HStem: 0 60<60 557> 557 60<60 557>
VStem: 0 60<60 557> 557 60<60 557>
LayerCount: 2
Fore
SplineSet
60 557 m 25
 60 60 l 25
 557 60 l 25
 557 557 l 25
 60 557 l 25
0 617 m 25
 617 617 l 25
 617 0 l 25
 0 0 l 25
 0 617 l 25
EndSplineSet
Validated: 1
EndChar

StartChar: uni25FD
Encoding: 9725 9725 219
Width: 617
VWidth: 0
Flags: W
HStem: 200 40<174 444> 510 40<174 444>
VStem: 134 40<240 510> 444 40<240 510>
LayerCount: 2
Fore
SplineSet
174 510 m 29
 174 240 l 29
 444 240 l 29
 444 510 l 29
 174 510 l 29
134 550 m 29
 484 550 l 29
 484 200 l 29
 134 200 l 29
 134 550 l 29
EndSplineSet
Validated: 1
EndChar

StartChar: uni25FB
Encoding: 9723 9723 220
Width: 617
VWidth: 0
Flags: W
HStem: 125 60<119 499> 565 60<119 499>
VStem: 59 60<185 565> 499 60<185 565>
LayerCount: 2
Fore
SplineSet
119 565 m 29
 119 185 l 29
 499 185 l 29
 499 565 l 29
 119 565 l 29
59 625 m 29
 559 625 l 29
 559 125 l 29
 59 125 l 29
 59 625 l 29
EndSplineSet
Validated: 1
EndChar

StartChar: upblock
Encoding: 9600 9600 221
Width: 617
VWidth: 0
Flags: W
HStem: 375 500<0 617>
VStem: 0 617<375 875>
LayerCount: 2
Fore
SplineSet
0 875 m 25
 617 875 l 25
 617 375 l 25
 0 375 l 25
 0 875 l 25
EndSplineSet
Validated: 1
EndChar

StartChar: uni2581
Encoding: 9601 9601 222
Width: 617
VWidth: 0
Flags: W
HStem: -375 156<0 617>
LayerCount: 2
Fore
SplineSet
0 -219 m 29
 617 -219 l 29
 617 -375 l 29
 0 -375 l 29
 0 -219 l 29
EndSplineSet
Validated: 1
EndChar

StartChar: uni2582
Encoding: 9602 9602 223
Width: 617
VWidth: 0
Flags: W
HStem: -375 313<0 617>
LayerCount: 2
Fore
SplineSet
0 -62 m 29
 617 -62 l 29
 617 -375 l 25
 0 -375 l 25
 0 -62 l 29
EndSplineSet
Validated: 1
EndChar

StartChar: uni2583
Encoding: 9603 9603 224
Width: 617
VWidth: 0
Flags: W
HStem: -375 469<0 617>
LayerCount: 2
Fore
SplineSet
0 94 m 29
 617 94 l 29
 617 -375 l 25
 0 -375 l 25
 0 94 l 29
EndSplineSet
Validated: 1
EndChar

StartChar: dnblock
Encoding: 9604 9604 225
Width: 617
VWidth: 0
Flags: W
HStem: -375 625<0 617>
VStem: 0 617<-375 250>
LayerCount: 2
Fore
SplineSet
0 250 m 29
 617 250 l 29
 617 -375 l 25
 0 -375 l 25
 0 250 l 29
EndSplineSet
Validated: 1
EndChar

StartChar: uni2585
Encoding: 9605 9605 226
Width: 617
VWidth: 0
Flags: W
VStem: 0 617<-375 406>
LayerCount: 2
Fore
SplineSet
0 406 m 29
 617 406 l 29
 617 -375 l 25
 0 -375 l 25
 0 406 l 29
EndSplineSet
Validated: 1
EndChar

StartChar: uni2586
Encoding: 9606 9606 227
Width: 617
VWidth: 0
Flags: W
VStem: 0 617<-375 563>
LayerCount: 2
Fore
SplineSet
0 563 m 29
 617 563 l 29
 617 -375 l 25
 0 -375 l 25
 0 563 l 29
EndSplineSet
Validated: 1
EndChar

StartChar: uni2587
Encoding: 9607 9607 228
Width: 617
VWidth: 0
Flags: W
VStem: 0 617<-375 718>
LayerCount: 2
Fore
SplineSet
0 718 m 25
 617 718 l 25
 617 -375 l 25
 0 -375 l 25
 0 718 l 25
EndSplineSet
Validated: 1
EndChar

StartChar: uni25A3
Encoding: 9635 9635 229
Width: 617
VWidth: 0
Flags: W
HStem: 0 60<60 557> 159 300<159 459> 557 60<60 557>
VStem: 0 60<60 557> 159 300<159 459> 557 60<60 557>
LayerCount: 2
Fore
SplineSet
60 557 m 25
 60 60 l 25
 557 60 l 25
 557 557 l 25
 60 557 l 25
0 617 m 25
 617 617 l 25
 617 0 l 25
 0 0 l 25
 0 617 l 25
159 459 m 25
 459 459 l 25
 459 159 l 25
 159 159 l 25
 159 459 l 25
EndSplineSet
Validated: 1
EndChar

StartChar: uni2589
Encoding: 9609 9609 230
Width: 617
VWidth: 0
Flags: W
VStem: 0 540<-375 875>
LayerCount: 2
Fore
SplineSet
0 875 m 25
 540 875 l 29
 540 -375 l 29
 0 -375 l 25
 0 875 l 25
EndSplineSet
Validated: 1
EndChar

StartChar: uni258A
Encoding: 9610 9610 231
Width: 617
VWidth: 0
Flags: W
VStem: 0 463<-375 875>
LayerCount: 2
Fore
SplineSet
0 875 m 25
 463 875 l 29
 463 -375 l 29
 0 -375 l 25
 0 875 l 25
EndSplineSet
Validated: 1
EndChar

StartChar: uni258B
Encoding: 9611 9611 232
Width: 617
VWidth: 0
Flags: W
VStem: 0 386<-375 875>
LayerCount: 2
Fore
SplineSet
0 875 m 25
 386 875 l 29
 386 -375 l 29
 0 -375 l 25
 0 875 l 25
EndSplineSet
Validated: 1
EndChar

StartChar: lfblock
Encoding: 9612 9612 233
Width: 617
VWidth: 0
Flags: W
VStem: 0 309<-375 875>
LayerCount: 2
Fore
SplineSet
0 875 m 25
 309 875 l 29
 309 -375 l 29
 0 -375 l 25
 0 875 l 25
EndSplineSet
Validated: 1
EndChar

StartChar: uni258D
Encoding: 9613 9613 234
Width: 617
VWidth: 0
Flags: W
VStem: 0 231<-375 875>
LayerCount: 2
Fore
SplineSet
0 875 m 25
 231 875 l 29
 231 -375 l 29
 0 -375 l 25
 0 875 l 25
EndSplineSet
Validated: 1
EndChar

StartChar: uni258E
Encoding: 9614 9614 235
Width: 617
VWidth: 0
Flags: W
VStem: 0 154<-375 875>
LayerCount: 2
Fore
SplineSet
0 875 m 25
 154 875 l 25
 154 -375 l 25
 0 -375 l 25
 0 875 l 25
EndSplineSet
Validated: 1
EndChar

StartChar: uni258F
Encoding: 9615 9615 236
Width: 617
VWidth: 0
Flags: W
VStem: 0 77<-375 875>
LayerCount: 2
Fore
SplineSet
0 875 m 25
 77 875 l 29
 77 -375 l 29
 0 -375 l 25
 0 875 l 25
EndSplineSet
Validated: 1
EndChar

StartChar: rtblock
Encoding: 9616 9616 237
Width: 617
VWidth: 0
Flags: W
VStem: 308 309<-375 875>
LayerCount: 2
Fore
SplineSet
308 875 m 29
 617 875 l 25
 617 -375 l 25
 308 -375 l 29
 308 875 l 29
EndSplineSet
Validated: 1
EndChar

StartChar: H18543
Encoding: 9642 9642 238
Width: 617
VWidth: 0
Flags: W
HStem: 200 350<134 484>
VStem: 134 350<200 550>
LayerCount: 2
Fore
SplineSet
134 550 m 25
 484 550 l 25
 484 200 l 25
 134 200 l 25
 134 550 l 25
EndSplineSet
Validated: 1
EndChar

StartChar: H18551
Encoding: 9643 9643 239
Width: 617
VWidth: 0
Flags: W
HStem: 225 40<199 419> 485 40<199 419>
VStem: 159 40<265 485> 419 40<265 485>
LayerCount: 2
Fore
SplineSet
199 485 m 29
 199 265 l 29
 419 265 l 29
 419 485 l 29
 199 485 l 29
159 525 m 29
 459 525 l 29
 459 225 l 29
 159 225 l 29
 159 525 l 29
EndSplineSet
Validated: 1
EndChar

StartChar: triagup
Encoding: 9650 9650 240
Width: 617
VWidth: 0
Flags: W
HStem: 0 21G<0 617>
LayerCount: 2
Fore
SplineSet
308 617 m 25
 617 0 l 25
 0 0 l 25
 308 617 l 25
EndSplineSet
Validated: 1
EndChar

StartChar: uni25B3
Encoding: 9651 9651 241
Width: 617
VWidth: 0
Flags: W
HStem: 0 60<97 520>
LayerCount: 2
Fore
SplineSet
308 481 m 25
 97 60 l 25
 520 60 l 25
 308 481 l 25
308 617 m 25
 617 0 l 25
 0 0 l 25
 308 617 l 25
EndSplineSet
Validated: 1
EndChar

StartChar: uni25B4
Encoding: 9652 9652 242
Width: 617
VWidth: 0
Flags: W
LayerCount: 2
Fore
SplineSet
308 550 m 29
 484 200 l 29
 134 200 l 29
 308 550 l 29
EndSplineSet
Validated: 1
EndChar

StartChar: uni25B5
Encoding: 9653 9653 243
Width: 617
VWidth: 0
Flags: W
HStem: 225 40<223 395>
VStem: 159 300
LayerCount: 2
Fore
SplineSet
308 436 m 25
 223 265 l 25
 395 265 l 25
 308 436 l 25
308 525 m 25
 459 225 l 25
 159 225 l 25
 308 525 l 25
EndSplineSet
Validated: 1
EndChar

StartChar: uni25B6
Encoding: 9654 9654 244
Width: 617
VWidth: 0
Flags: W
LayerCount: 2
Fore
SplineSet
617 375 m 25
 0 66 l 25
 0 683 l 25
 617 375 l 25
EndSplineSet
Validated: 1
EndChar

StartChar: uni25B7
Encoding: 9655 9655 245
Width: 617
VWidth: 0
Flags: W
VStem: 0 60<163 586>
LayerCount: 2
Fore
SplineSet
481 375 m 25
 60 586 l 25
 60 163 l 25
 481 375 l 25
617 375 m 25
 0 66 l 25
 0 683 l 25
 617 375 l 25
EndSplineSet
Validated: 1
EndChar

StartChar: uni25B8
Encoding: 9656 9656 246
Width: 617
VWidth: 0
Flags: W
LayerCount: 2
Fore
SplineSet
484 375 m 25
 134 199 l 25
 134 549 l 25
 484 375 l 25
EndSplineSet
Validated: 1
EndChar

StartChar: uni25B9
Encoding: 9657 9657 247
Width: 617
VWidth: 0
Flags: W
HStem: 224 300
VStem: 159 40<288 460>
LayerCount: 2
Fore
SplineSet
370 375 m 25
 199 460 l 25
 199 288 l 25
 370 375 l 25
459 375 m 25
 159 224 l 25
 159 524 l 25
 459 375 l 25
EndSplineSet
Validated: 1
EndChar

StartChar: uni25C0
Encoding: 9664 9664 248
Width: 617
VWidth: 0
Flags: W
LayerCount: 2
Fore
SplineSet
0 374 m 25
 617 683 l 25
 617 66 l 25
 0 374 l 25
EndSplineSet
Validated: 1
EndChar

StartChar: uni25C1
Encoding: 9665 9665 249
Width: 617
VWidth: 0
Flags: W
VStem: 557 60<163 586>
LayerCount: 2
Fore
SplineSet
136 374 m 25
 557 163 l 25
 557 586 l 25
 136 374 l 25
0 374 m 25
 617 683 l 25
 617 66 l 25
 0 374 l 25
EndSplineSet
Validated: 1
EndChar

StartChar: uni25C2
Encoding: 9666 9666 250
Width: 617
VWidth: 0
Flags: W
LayerCount: 2
Fore
SplineSet
134 373 m 29
 484 549 l 25
 484 199 l 25
 134 373 l 29
EndSplineSet
Validated: 1
EndChar

StartChar: uni25C3
Encoding: 9667 9667 251
Width: 617
VWidth: 0
Flags: W
HStem: 224 300
VStem: 419 40<288 460>
LayerCount: 2
Fore
SplineSet
248 373 m 25
 419 288 l 25
 419 460 l 25
 248 373 l 25
159 373 m 25
 459 524 l 25
 459 224 l 25
 159 373 l 25
EndSplineSet
Validated: 1
EndChar

StartChar: triagdn
Encoding: 9660 9660 252
Width: 617
VWidth: 0
Flags: W
HStem: 0 21G<298.984 318.984>
LayerCount: 2
Fore
SplineSet
309 0 m 25
 0 617 l 25
 617 617 l 25
 309 0 l 25
EndSplineSet
Validated: 1
EndChar

StartChar: uni25BD
Encoding: 9661 9661 253
Width: 617
VWidth: 0
Flags: W
HStem: 0 21G<298.984 318.984> 557 60<97 520>
LayerCount: 2
Fore
SplineSet
309 136 m 25
 520 557 l 25
 97 557 l 25
 309 136 l 25
309 0 m 25
 0 617 l 25
 617 617 l 25
 309 0 l 25
EndSplineSet
Validated: 1
EndChar

StartChar: uni25BE
Encoding: 9662 9662 254
Width: 617
VWidth: 0
Flags: W
LayerCount: 2
Fore
SplineSet
310 200 m 29
 134 550 l 29
 484 550 l 29
 310 200 l 29
EndSplineSet
Validated: 1
EndChar

StartChar: uni25BF
Encoding: 9663 9663 255
Width: 617
VWidth: 0
Flags: W
HStem: 485 40<223 395>
VStem: 159 300
LayerCount: 2
Fore
SplineSet
310 314 m 25
 395 485 l 25
 223 485 l 25
 310 314 l 25
310 225 m 25
 159 525 l 25
 459 525 l 25
 310 225 l 25
EndSplineSet
Validated: 1
EndChar

StartChar: triagrt
Encoding: 9658 9658 256
Width: 617
VWidth: 0
Flags: W
LayerCount: 2
Fore
SplineSet
617 375 m 25
 0 199 l 25
 0 549 l 25
 617 375 l 25
EndSplineSet
Validated: 1
EndChar

StartChar: uni25BB
Encoding: 9659 9659 257
Width: 617
VWidth: 0
Flags: W
VStem: 0 60<279 469>
LayerCount: 2
Fore
SplineSet
399 375 m 25
 60 469 l 25
 60 279 l 25
 399 375 l 25
617 375 m 25
 0 199 l 25
 0 549 l 25
 617 375 l 25
EndSplineSet
Validated: 1
EndChar

StartChar: triaglf
Encoding: 9668 9668 258
Width: 617
VWidth: 0
Flags: W
LayerCount: 2
Fore
SplineSet
0 373 m 25
 617 549 l 25
 617 199 l 25
 0 373 l 25
EndSplineSet
Validated: 1
EndChar

StartChar: uni25C5
Encoding: 9669 9669 259
Width: 617
VWidth: 0
Flags: W
VStem: 557 60<279 469>
LayerCount: 2
Fore
SplineSet
218 373 m 25
 557 279 l 25
 557 469 l 25
 218 373 l 25
0 373 m 25
 617 549 l 25
 617 199 l 25
 0 373 l 25
EndSplineSet
Validated: 1
EndChar

StartChar: ellipsis
Encoding: 8230 8230 260
Width: 617
Flags: W
HStem: 0 180<35.8095 142.574 254.809 361.574 473.809 580.574>
VStem: 0 179<36.4257 143.574> 219 179<36.4257 143.574> 438 179<36.4257 143.574>
CounterMasks: 1 70
LayerCount: 2
Fore
SplineSet
89 180 m 4
 134 180 179 135 179 90 c 4
 179 45 134 0 89 0 c 4
 44 0 0 45 0 90 c 4
 0 135 44 180 89 180 c 4
527 180 m 4
 572 180 617 135 617 90 c 4
 617 45 572 0 527 0 c 4
 482 0 438 45 438 90 c 4
 438 135 482 180 527 180 c 4
308 180 m 4
 353 180 398 135 398 90 c 4
 398 45 353 0 308 0 c 4
 263 0 219 45 219 90 c 4
 219 135 263 180 308 180 c 4
EndSplineSet
Validated: 1
EndChar

StartChar: circumflex
Encoding: 710 710 261
Width: 617
Flags: HMW
HStem: 545 205
DStem2: 117 545 214 545 0.582737 0.812661<56.5255 210.447> 354 750 308 667 0.58011 -0.814538<40.9216 40.9216>
LayerCount: 2
Fore
SplineSet
486.245117188 750 m 1
 596.098632812 545 l 1
 500.098632812 545 l 1
 425.610351562 667 l 1
 310.098632812 545 l 1
 213.098632812 545 l 1
 396.245117188 750 l 1
 486.245117188 750 l 1
EndSplineSet
EndChar

StartChar: ring
Encoding: 730 730 262
Width: 617
VWidth: 0
Flags: HW
HStem: 545 63<253.581 363.125> 688 62<253.581 363.125>
VStem: 184 62<616.483 679.379> 371 63<617.654 678.052>
LayerCount: 2
Fore
SplineSet
404.098632812 545 m 4
 281.098632812 545 297.73046875 645 298.259765625 648 c 4
 298.7890625 651 317.245117188 750 440.245117188 750 c 4
 565.245117188 750 548.259765625 648 548.259765625 648 c 5
 548.259765625 648 529.098632812 545 404.098632812 545 c 4
360.259765625 648 m 5
 360.259765625 648 353.20703125 608 415.20703125 608 c 7
 477.20703125 608 485.259765625 648 485.259765625 648 c 5
 485.259765625 648 491.3125 688 429.3125 688 c 4
 367.3125 688 360.259765625 648 360.259765625 648 c 5
EndSplineSet
EndChar

StartChar: caron
Encoding: 711 711 263
Width: 617
Flags: HMW
HStem: 545 205
DStem2: 214 750 117 750 0.582737 -0.812661<0 153.922> 308 628 354 545 0.58011 0.814538<0 155.064>
LayerCount: 2
Fore
SplineSet
450.098632812 545 m 1
 360.098632812 545 l 1
 249.245117188 750 l 1
 346.245117188 750 l 1
 418.733398438 628 l 1
 536.245117188 750 l 1
 632.245117188 750 l 1
 450.098632812 545 l 1
EndSplineSet
EndChar
